<mxfile host="Electron" agent="Mozilla/5.0 (Macintosh; Intel Mac OS X 10_15_7) AppleWebKit/537.36 (KHTML, like Gecko) draw.io/24.7.17 Chrome/128.0.6613.36 Electron/32.0.1 Safari/537.36" version="24.7.17">
  <diagram name="Page-1" id="eqzqypZnMM4hdTCprP2h">
    <mxGraphModel dx="370" dy="856" grid="1" gridSize="10" guides="1" tooltips="1" connect="1" arrows="1" fold="1" page="1" pageScale="1" pageWidth="850" pageHeight="1100" math="0" shadow="0">
      <root>
        <mxCell id="0" />
        <mxCell id="1" parent="0" />
        <mxCell id="sjKJRGS4V3Ahwg_5ihNp-67" value="1 per Project" style="edgeStyle=orthogonalEdgeStyle;rounded=0;orthogonalLoop=1;jettySize=auto;html=1;entryX=1;entryY=0.5;entryDx=0;entryDy=0;" parent="1" source="sjKJRGS4V3Ahwg_5ihNp-74" target="sjKJRGS4V3Ahwg_5ihNp-89" edge="1">
          <mxGeometry x="-0.1034" relative="1" as="geometry">
            <mxPoint as="offset" />
            <Array as="points">
              <mxPoint x="1580" y="200" />
            </Array>
          </mxGeometry>
        </mxCell>
        <mxCell id="sjKJRGS4V3Ahwg_5ihNp-68" value="1 per Server" style="edgeStyle=orthogonalEdgeStyle;rounded=0;orthogonalLoop=1;jettySize=auto;html=1;entryX=1;entryY=0.5;entryDx=0;entryDy=0;exitX=0;exitY=0.25;exitDx=0;exitDy=0;" parent="1" source="sjKJRGS4V3Ahwg_5ihNp-74" target="sjKJRGS4V3Ahwg_5ihNp-76" edge="1">
          <mxGeometry x="0.0031" relative="1" as="geometry">
            <Array as="points">
              <mxPoint x="1540" y="520" />
              <mxPoint x="1520" y="520" />
              <mxPoint x="1520" y="368" />
            </Array>
            <mxPoint as="offset" />
          </mxGeometry>
        </mxCell>
        <mxCell id="sjKJRGS4V3Ahwg_5ihNp-69" value="1 per Server" style="edgeStyle=orthogonalEdgeStyle;rounded=0;orthogonalLoop=1;jettySize=auto;html=1;exitX=0;exitY=0.75;exitDx=0;exitDy=0;" parent="1" source="sjKJRGS4V3Ahwg_5ihNp-74" target="sjKJRGS4V3Ahwg_5ihNp-83" edge="1">
          <mxGeometry relative="1" as="geometry">
            <Array as="points">
              <mxPoint x="1540" y="550" />
              <mxPoint x="1520" y="550" />
              <mxPoint x="1520" y="685" />
            </Array>
          </mxGeometry>
        </mxCell>
        <mxCell id="sjKJRGS4V3Ahwg_5ihNp-70" value="1 per Warehouse" style="edgeStyle=orthogonalEdgeStyle;rounded=0;orthogonalLoop=1;jettySize=auto;html=1;exitX=0.358;exitY=1.03;exitDx=0;exitDy=0;exitPerimeter=0;" parent="1" target="sjKJRGS4V3Ahwg_5ihNp-90" edge="1">
          <mxGeometry x="0.0024" relative="1" as="geometry">
            <Array as="points">
              <mxPoint x="1700" y="647.9000000000001" />
              <mxPoint x="1700" y="647.9000000000001" />
            </Array>
            <mxPoint as="offset" />
            <mxPoint x="1699.56" y="570" as="sourcePoint" />
          </mxGeometry>
        </mxCell>
        <mxCell id="sjKJRGS4V3Ahwg_5ihNp-71" value="Authorize&lt;br&gt;1 per Server" style="edgeStyle=orthogonalEdgeStyle;rounded=0;orthogonalLoop=1;jettySize=auto;html=1;entryX=0.5;entryY=1;entryDx=0;entryDy=0;exitX=0.655;exitY=0.018;exitDx=0;exitDy=0;exitPerimeter=0;" parent="1" source="sjKJRGS4V3Ahwg_5ihNp-74" target="sjKJRGS4V3Ahwg_5ihNp-98" edge="1">
          <mxGeometry x="0.0042" relative="1" as="geometry">
            <mxPoint x="1920" y="430" as="targetPoint" />
            <mxPoint as="offset" />
          </mxGeometry>
        </mxCell>
        <mxCell id="sjKJRGS4V3Ahwg_5ihNp-72" value="&lt;div&gt;Publish Change Events&lt;br&gt;n per Server&lt;br&gt;&lt;/div&gt;" style="edgeStyle=orthogonalEdgeStyle;rounded=0;orthogonalLoop=1;jettySize=auto;html=1;entryX=0;entryY=0.5;entryDx=0;entryDy=0;exitX=1;exitY=0.25;exitDx=0;exitDy=0;" parent="1" source="sjKJRGS4V3Ahwg_5ihNp-74" target="sjKJRGS4V3Ahwg_5ihNp-102" edge="1">
          <mxGeometry x="0.2106" y="-15" relative="1" as="geometry">
            <mxPoint as="offset" />
            <mxPoint x="2150" y="790" as="targetPoint" />
            <Array as="points">
              <mxPoint x="1860" y="520" />
              <mxPoint x="1890" y="520" />
              <mxPoint x="1890" y="475" />
            </Array>
          </mxGeometry>
        </mxCell>
        <mxCell id="sjKJRGS4V3Ahwg_5ihNp-73" value="Validate Changes&lt;br&gt;1 per Server" style="edgeStyle=orthogonalEdgeStyle;rounded=0;orthogonalLoop=1;jettySize=auto;html=1;entryX=0;entryY=0.5;entryDx=0;entryDy=0;exitX=1;exitY=0.75;exitDx=0;exitDy=0;" parent="1" source="sjKJRGS4V3Ahwg_5ihNp-74" target="sjKJRGS4V3Ahwg_5ihNp-108" edge="1">
          <mxGeometry x="-0.0909" relative="1" as="geometry">
            <Array as="points">
              <mxPoint x="1860" y="550" />
              <mxPoint x="1890" y="550" />
              <mxPoint x="1890" y="725" />
            </Array>
            <mxPoint as="offset" />
          </mxGeometry>
        </mxCell>
        <mxCell id="sjKJRGS4V3Ahwg_5ihNp-74" value="&lt;font style=&quot;font-size: 24px;&quot; color=&quot;#ffffff&quot;&gt;Lakekeeper&lt;/font&gt;" style="rounded=0;whiteSpace=wrap;html=1;fontStyle=0;fontSize=24;fillColor=#0a2134;" parent="1" vertex="1">
          <mxGeometry x="1540" y="500" width="320" height="70" as="geometry" />
        </mxCell>
        <mxCell id="sjKJRGS4V3Ahwg_5ihNp-75" value="" style="shape=image;verticalLabelPosition=bottom;labelBackgroundColor=default;verticalAlign=top;aspect=fixed;imageAspect=0;image=data:image/svg+xml,PHN2ZyB4bWxuczp4bGluaz0iaHR0cDovL3d3dy53My5vcmcvMTk5OS94bGluayIgeG1sbnM9Imh0dHA6Ly93d3cudzMub3JnLzIwMDAvc3ZnIiB4bWw6c3BhY2U9InByZXNlcnZlIiBzdHlsZT0iZW5hYmxlLWJhY2tncm91bmQ6bmV3IDAgMCAxMTA2IDExMDY7IiB2aWV3Qm94PSIwIDAgMTEwNiAxMTA2IiB5PSIwcHgiIHg9IjBweCIgaWQ9IkxheWVyXzEiIHZlcnNpb249IjEuMSI+JiN4YTs8c3R5bGUgdHlwZT0idGV4dC9jc3MiPiYjeGE7CS5zdDB7ZmlsbC1ydWxlOmV2ZW5vZGQ7Y2xpcC1ydWxlOmV2ZW5vZGQ7fSYjeGE7CS5zdDJ7ZmlsbC1ydWxlOmV2ZW5vZGQ7Y2xpcC1ydWxlOmV2ZW5vZGQ7ZmlsbDojNUQ3Mzg5O30mI3hhOwkuc3Qze2ZpbGwtcnVsZTpldmVub2RkO2NsaXAtcnVsZTpldmVub2RkO2ZpbGw6IzMyNDg1Qzt9JiN4YTsJLnN0NHtmaWxsLXJ1bGU6ZXZlbm9kZDtjbGlwLXJ1bGU6ZXZlbm9kZDtmaWxsOiMwOTFGMzQ7fSYjeGE7CS5zdDV7ZmlsbC1ydWxlOmV2ZW5vZGQ7Y2xpcC1ydWxlOmV2ZW5vZGQ7ZmlsbDojMUUzNDQ4O30mI3hhOwkuc3Q2e2ZpbGwtcnVsZTpldmVub2RkO2NsaXAtcnVsZTpldmVub2RkO2ZpbGw6IzhEQTVCQTt9JiN4YTsJLnN0N3tmaWxsLXJ1bGU6ZXZlbm9kZDtjbGlwLXJ1bGU6ZXZlbm9kZDtmaWxsOiNCQ0Q0RUI7fSYjeGE7PC9zdHlsZT4mI3hhOzxnPiYjeGE7CTxyZWN0IGhlaWdodD0iMTEwNiIgd2lkdGg9IjExMDYiIGNsYXNzPSJzdDAiIHk9IjAiIHg9IjAiIGZpbGw9Im5vbmUiLz4mI3hhOwk8cGF0aCBkPSJNNzY4LjUyLDczNS40NWg0LjMydi0yMi44OGgtNC45NGwtNy4xNiw5Ljg0bC03LjE3LTkuODRoLTQuOTd2MjIuODhoNC4zMnYtMTYuNjNsNy4yOSw5Ljk3aDAuODVsNy40Ny05LjkzJiMxMDsmIzk7JiM5O1Y3MzUuNDV6IE03MzQuMzUsNzM1LjQ1aDQuMzJ2LTE5LjAxaDcuMjd2LTMuOTNjLTYuNjUsMC0xMi4yNCwwLTE4Ljg1LDB2My45M2g3LjI2VjczNS40NXoiIGNsYXNzPSJzdDEiLz4mI3hhOwk8cG9seWdvbiBwb2ludHM9IjU2NS4yLDY2NyA1MjAuNSw2NzYuMjYgNTAxLjE5LDczNS40NSA1ODkuOTIsNzM1LjQ1IiBjbGFzcz0ic3QyIi8+JiN4YTsJPHBvbHlnb24gcG9pbnRzPSI1MDEuMTksNzM1LjQ1IDU2NS4yLDY2NyA1MTkuNjIsNjQ0LjYgNDY1LjY5LDYzOC40OCIgY2xhc3M9InN0MyIvPiYjeGE7CTxwb2x5Z29uIHBvaW50cz0iNDY1LjY5LDYzOC40OCA1NjUuMiw2NjcgNTc3Ljg4LDYwMi45OCA1MjEuNjksNjA2Ljg1IiBjbGFzcz0ic3Q0Ii8+JiN4YTsJPHBvbHlnb24gcG9pbnRzPSI2NzcuNzYsNjQwLjc5IDYzNC44Nyw2NzEuMzYgNjIxLjYxLDczNS40NSA3MTMuNTIsNzM1LjQ1IiBjbGFzcz0ic3QyIi8+JiN4YTsJPHBvbHlnb24gcG9pbnRzPSI2MjEuNjEsNzM1LjQ1IDY3Ny43Niw2NDAuNzkgNjI3LjgyLDYzNC45OSA1OTkuNzUsNjY5LjIyIiBjbGFzcz0ic3QzIi8+JiN4YTsJPHBvbHlnb24gcG9pbnRzPSI1OTkuNzUsNjY5LjIyIDY3Ny43Niw2NDAuNzkgNjMyLjM2LDYwMC43NyA1NzcuODgsNjAyLjk4IiBjbGFzcz0ic3Q0Ii8+JiN4YTsJPHBvbHlnb24gcG9pbnRzPSI1NzcuODgsNjAyLjk4IDY3Ny43Niw2NDAuNzkgNjc5LjM3LDUxNS41NSA2MTUuNTcsNTQ4LjIiIGNsYXNzPSJzdDMiLz4mI3hhOwk8cG9seWdvbiBwb2ludHM9IjU3Ny44OCw2MDIuOTggNjc5LjM3LDUxNS41NSA2MTQuMzUsNDkyLjQgNTg1LjQxLDUwMS43MyA1NjUuMTcsNTI2LjcyIiBjbGFzcz0ic3QyIi8+JiN4YTsJPHBvbHlnb24gcG9pbnRzPSI1NzcuODgsNjAyLjk4IDU4NS40MSw1MDEuNzMgNTU1LjMsNDY0LjE4IDQ5MS42OCw0NjQuMTcgNTA0LjcsNTM1Ljk5IiBjbGFzcz0ic3QzIi8+JiN4YTsJPHBvbHlnb24gcG9pbnRzPSI1NzcuODgsNjAyLjk4IDUzMC4zNyw1MjYuNDggNDgwLjE1LDU3Ny40MiA0NjUuNjksNjM4LjQ4IiBjbGFzcz0ic3Q1Ii8+JiN4YTsJPHBvbHlnb24gcG9pbnRzPSI0NjUuNjksNjM4LjQ4IDUzMC4zNyw1MjYuNDggNTAwLjAxLDUwMC4xIDQxMS44NSw0NzEuMzggNDI1LjM4LDU4Mi4wNSIgY2xhc3M9InN0MiIvPiYjeGE7CTxwb2x5Z29uIHBvaW50cz0iNDY1LjY5LDYzOC40OCA0MTEuODUsNDcxLjM4IDM3NS4zMiw1NTguOTkgMzUzLjUsNjE4LjgzIDM4NS45MSw2NDQuMSIgY2xhc3M9InN0NSIvPiYjeGE7CTxwb2x5Z29uIHBvaW50cz0iNDY1LjY5LDYzOC40OCAzNTMuNSw2MTguODMgMzM3LjY2LDY3Ny4xNCAzOTkuMDMsNjcxLjg2IiBjbGFzcz0ic3Q0Ii8+JiN4YTsJPHBvbHlnb24gcG9pbnRzPSI0NjUuNjksNjM4LjQ4IDMzNy42Niw2NzcuMTQgMzUyLjU2LDcxMy4yMiA0MTEuMTgsNzM1LjQ1IiBjbGFzcz0ic3QzIi8+JiN4YTsJPHBvbHlnb24gcG9pbnRzPSI0MTEuMTgsNzM1LjQ1IDMzNy42Niw2NzcuMTQgMzIxLjgxLDczNS40NSIgY2xhc3M9InN0MiIvPiYjeGE7CTxwb2x5Z29uIHBvaW50cz0iMzUzLjUsNjE4LjgzIDQxMS44NSw0NzEuMzggMzU2LjM2LDUxOS45NiIgY2xhc3M9InN0NCIvPiYjeGE7CTxwb2x5Z29uIHBvaW50cz0iNDExLjg1LDQ3MS4zOCA1MzAuMzcsNTI2LjQ4IDQ5MS42OCw0NjQuMTciIGNsYXNzPSJzdDYiLz4mI3hhOwk8cG9seWdvbiBwb2ludHM9IjU5MS41MSw0MTkuOCA2MjAuMzUsNDcyLjc1IDY3OS4zNyw1MTUuNTUgNzAxLjQzLDQ3Ny4yNCA2ODMuMTksNDQ5LjgxIDY2MC4zMiw0MzQuODMiIGNsYXNzPSJzdDIiLz4mI3hhOwk8cG9seWdvbiBwb2ludHM9IjY4My4xOSw0NDkuODEgNjc5LjM3LDUxNS41NSA3NzAuMjQsNDY5LjI0IDcxOC42LDQ0NC44MiIgY2xhc3M9InN0NSIvPiYjeGE7CTxwb2x5Z29uIHBvaW50cz0iNjgzLjE5LDQ0OS44MSA3NzAuMjQsNDY5LjI0IDc2MC4yOSw0MzcuMjMgNzM5LjgyLDQxOC41NCA3MTEuNTEsNDIxLjUiIGNsYXNzPSJzdDYiLz4mI3hhOwk8cG9seWdvbiBwb2ludHM9IjczOS44Miw0MTguNTQgNzcwLjI0LDQ2OS4yNCA3ODQuMTksNDI5Ljk0IiBjbGFzcz0ic3Q3Ii8+JiN4YTsJPHBvbHlnb24gcG9pbnRzPSI2ODMuMTksNDQ5LjgxIDczOS44Miw0MTguNTQgNzEzLjIsMzkzLjE4IDY4MC4zMiw0MTguMDEiIGNsYXNzPSJzdDMiLz4mI3hhOwk8cG9seWdvbiBwb2ludHM9IjY4My4xOSw0NDkuODEgNzEzLjIsMzkzLjE4IDYzOS41Niw0MDIuNjkgNTkxLjUxLDQxOS44IiBjbGFzcz0ic3Q3Ii8+JiN4YTsJPHBvbHlnb24gcG9pbnRzPSI2MzkuNjMsNDAyLjg4IDY2My42MiwzOTkuNTggNjgyLjg2LDM4Ny4xIDY2NS4xNCwzNzMuMzQgNjQ4Ljk0LDM3MC41NSA2NDIuOSwzODEuODgiIGNsYXNzPSJzdDYiLz4mI3hhOwk8cG9seWdvbiBwb2ludHM9IjQ5MS42OCw0NjQuMTcgNTg1LjQxLDUwMS43MyA2MDguNTUsNDY5LjcgNTkxLjUsNDE5LjgiIGNsYXNzPSJzdDIiLz4mI3hhOwk8cG9seWdvbiBwb2ludHM9IjU4NS40MSw1MDEuNzMgNjc5LjM3LDUxNS41NSA1OTEuNSw0MTkuOCIgY2xhc3M9InN0NiIvPiYjeGE7CTxwb2x5Z29uIHBvaW50cz0iNDk0LjQzLDczNS40NSA0NzguMiw2OTEuMDkgNDY0LjIxLDcwNS44NSA0NTQuMjgsNzM1LjQ1IiBjbGFzcz0ic3QyIi8+JiN4YTsJPHBvbHlnb24gcG9pbnRzPSI0NTQuMjgsNzM1LjQ1IDQ3OC4yLDY5MS4wOSA0NjMuOTQsNjgwLjc1IDQ0NS4xNyw2ODguOTkiIGNsYXNzPSJzdDMiLz4mI3hhOwk8cG9seWdvbiBwb2ludHM9IjQ0NS4xNyw2ODguOTkgNDc4LjIsNjkxLjA5IDQ2NC40Nyw2NTMuNTggNDQ1LjAxLDY4OC4yIiBjbGFzcz0ic3Q0Ii8+JiN4YTsJPHBvbHlnb24gcG9pbnRzPSI2ODMuMTksNDQ5LjgxIDYzOS41Niw0MDIuNjkgNjgyLjgsMzg2LjkgNzEzLjIsMzkzLjE4IiBjbGFzcz0ic3QyIi8+JiN4YTs8L2c+JiN4YTs8L3N2Zz4=;clipPath=inset(33.33% 28.67% 32.67% 28.33%);" parent="1" vertex="1">
          <mxGeometry x="1785" y="517.6100000000001" width="43.98" height="34.77" as="geometry" />
        </mxCell>
        <mxCell id="sjKJRGS4V3Ahwg_5ihNp-76" value="Persistence Backend&lt;div&gt;&lt;span style=&quot;font-weight: normal;&quot;&gt;required&lt;/span&gt;&lt;/div&gt;" style="swimlane;whiteSpace=wrap;html=1;startSize=40;" parent="1" vertex="1">
          <mxGeometry x="1220" y="238" width="220" height="260" as="geometry" />
        </mxCell>
        <mxCell id="sjKJRGS4V3Ahwg_5ihNp-77" value="&amp;nbsp; External Postgres" style="rounded=0;whiteSpace=wrap;html=1;verticalAlign=middle;align=left;fillColor=#d5e8d4;strokeColor=#82b366;" parent="sjKJRGS4V3Ahwg_5ihNp-76" vertex="1">
          <mxGeometry x="10" y="50" width="200" height="40" as="geometry" />
        </mxCell>
        <mxCell id="sjKJRGS4V3Ahwg_5ihNp-78" value="" style="shape=image;verticalLabelPosition=bottom;labelBackgroundColor=default;verticalAlign=top;aspect=fixed;imageAspect=0;image=data:image/svg+xml,PHN2ZyB4bWxucz0iaHR0cDovL3d3dy53My5vcmcvMjAwMC9zdmciIHhtbDpzcGFjZT0icHJlc2VydmUiIHZpZXdCb3g9IjAgMCA0MzIuMDcxIDQ0NS4zODMiIGhlaWdodD0iNDQ1LjM4M3B0IiB3aWR0aD0iNDMyLjA3MXB0Ij4mI3hhOzxnIHN0eWxlPSJmaWxsLXJ1bGU6bm9uemVybztjbGlwLXJ1bGU6bm9uemVybztzdHJva2U6IzAwMDAwMDtzdHJva2UtbWl0ZXJsaW1pdDo0OyIgaWQ9Im9yZ2luYWwiPiYjeGE7CTwvZz4mI3hhOzxnIHN0eWxlPSJmaWxsLXJ1bGU6bm9uemVybztjbGlwLXJ1bGU6bm9uemVybztmaWxsOm5vbmU7c3Ryb2tlOiNGRkZGRkY7c3Ryb2tlLXdpZHRoOjEyLjQ2NTE7c3Ryb2tlLWxpbmVjYXA6cm91bmQ7c3Ryb2tlLWxpbmVqb2luOnJvdW5kO3N0cm9rZS1taXRlcmxpbWl0OjQ7IiBpZD0iTGF5ZXJfeDAwMjBfMyI+JiN4YTs8cGF0aCBkPSJNMzIzLjIwNSwzMjQuMjI3YzIuODMzLTIzLjYwMSwxLjk4NC0yNy4wNjIsMTkuNTYzLTIzLjIzOWw0LjQ2MywwLjM5MmMxMy41MTcsMC42MTUsMzEuMTk5LTIuMTc0LDQxLjU4Ny03YzIyLjM2Mi0xMC4zNzYsMzUuNjIyLTI3LjcsMTMuNTcyLTIzLjE0OGMtNTAuMjk3LDEwLjM3Ni01My43NTUtNi42NTUtNTMuNzU1LTYuNjU1YzUzLjExMS03OC44MDMsNzUuMzEzLTE3OC44MzYsNTYuMTQ5LTIwMy4zMjIgICAgQzM1Mi41MTQtNS41MzQsMjYyLjAzNiwyNi4wNDksMjYwLjUyMiwyNi44NjlsLTAuNDgyLDAuMDg5Yy05LjkzOC0yLjA2Mi0yMS4wNi0zLjI5NC0zMy41NTQtMy40OTZjLTIyLjc2MS0wLjM3NC00MC4wMzIsNS45NjctNTMuMTMzLDE1LjkwNGMwLDAtMTYxLjQwOC02Ni40OTgtMTUzLjg5OSw4My42MjhjMS41OTcsMzEuOTM2LDQ1Ljc3NywyNDEuNjU1LDk4LjQ3LDE3OC4zMSAgICBjMTkuMjU5LTIzLjE2MywzNy44NzEtNDIuNzQ4LDM3Ljg3MS00Mi43NDhjOS4yNDIsNi4xNCwyMC4zMDcsOS4yNzIsMzEuOTEyLDguMTQ3bDAuODk3LTAuNzY1Yy0wLjI4MSwyLjg3Ni0wLjE1Nyw1LjY4OSwwLjM1OSw5LjAxOWMtMTMuNTcyLDE1LjE2Ny05LjU4NCwxNy44My0zNi43MjMsMjMuNDE2Yy0yNy40NTcsNS42NTktMTEuMzI2LDE1LjczNC0wLjc5NywxOC4zNjdjMTIuNzY4LDMuMTkzLDQyLjMwNSw3LjcxNiw2Mi4yNjgtMjAuMjI0ICAgIGwtMC43OTUsMy4xODhjNS4zMjUsNC4yNiw0Ljk2NSwzMC42MTksNS43Miw0OS40NTJjMC43NTYsMTguODM0LDIuMDE3LDM2LjQwOSw1Ljg1Niw0Ni43NzFjMy44MzksMTAuMzYsOC4zNjksMzcuMDUsNDQuMDM2LDI5LjQwNmMyOS44MDktNi4zODgsNTIuNi0xNS41ODIsNTQuNjc3LTEwMS4xMDciIHN0eWxlPSJmaWxsOiMwMDAwMDA7c3Ryb2tlOiMwMDAwMDA7c3Ryb2tlLXdpZHRoOjM3LjM5NTM7c3Ryb2tlLWxpbmVjYXA6YnV0dDtzdHJva2UtbGluZWpvaW46bWl0ZXI7Ii8+JiN4YTs8cGF0aCBkPSJNNDAyLjM5NSwyNzEuMjNjLTUwLjMwMiwxMC4zNzYtNTMuNzYtNi42NTUtNTMuNzYtNi42NTVjNTMuMTExLTc4LjgwOCw3NS4zMTMtMTc4Ljg0Myw1Ni4xNTMtMjAzLjMyNmMtNTIuMjctNjYuNzg1LTE0Mi43NTItMzUuMi0xNDQuMjYyLTM0LjM4bC0wLjQ4NiwwLjA4N2MtOS45MzgtMi4wNjMtMjEuMDYtMy4yOTItMzMuNTYtMy40OTZjLTIyLjc2MS0wLjM3My00MC4wMjYsNS45NjctNTMuMTI3LDE1LjkwMiAgICBjMCwwLTE2MS40MTEtNjYuNDk1LTE1My45MDQsODMuNjNjMS41OTcsMzEuOTM4LDQ1Ljc3NiwyNDEuNjU3LDk4LjQ3MSwxNzguMzEyYzE5LjI2LTIzLjE2MywzNy44NjktNDIuNzQ4LDM3Ljg2OS00Mi43NDhjOS4yNDMsNi4xNCwyMC4zMDgsOS4yNzIsMzEuOTA4LDguMTQ3bDAuOTAxLTAuNzY1Yy0wLjI4LDIuODc2LTAuMTUyLDUuNjg5LDAuMzYxLDkuMDE5Yy0xMy41NzUsMTUuMTY3LTkuNTg2LDE3LjgzLTM2LjcyMywyMy40MTYgICAgYy0yNy40NTksNS42NTktMTEuMzI4LDE1LjczNC0wLjc5NiwxOC4zNjdjMTIuNzY4LDMuMTkzLDQyLjMwNyw3LjcxNiw2Mi4yNjYtMjAuMjI0bC0wLjc5NiwzLjE4OGM1LjMxOSw0LjI2LDkuMDU0LDI3LjcxMSw4LjQyOCw0OC45NjljLTAuNjI2LDIxLjI1OS0xLjA0NCwzNS44NTQsMy4xNDcsNDcuMjU0YzQuMTkxLDExLjQsOC4zNjgsMzcuMDUsNDQuMDQyLDI5LjQwNmMyOS44MDktNi4zODgsNDUuMjU2LTIyLjk0Miw0Ny40MDUtNTAuNTU1ICAgIGMxLjUyNS0xOS42MzEsNC45NzYtMTYuNzI5LDUuMTk0LTM0LjI4bDIuNzY4LTguMzA5YzMuMTkyLTI2LjYxMSwwLjUwNy0zNS4xOTYsMTguODcyLTMxLjIwM2w0LjQ2MywwLjM5MmMxMy41MTcsMC42MTUsMzEuMjA4LTIuMTc0LDQxLjU5MS03YzIyLjM1OC0xMC4zNzYsMzUuNjE4LTI3LjcsMTMuNTczLTIzLjE0OHoiIHN0eWxlPSJmaWxsOiMzMzY3OTE7c3Ryb2tlOm5vbmU7Ii8+JiN4YTs8cGF0aCBkPSJNMjE1Ljg2NiwyODYuNDg0Yy0xLjM4NSw0OS41MTYsMC4zNDgsOTkuMzc3LDUuMTkzLDExMS40OTVjNC44NDgsMTIuMTE4LDE1LjIyMywzNS42ODgsNTAuOSwyOC4wNDVjMjkuODA2LTYuMzksNDAuNjUxLTE4Ljc1Niw0NS4zNTctNDYuMDUxYzMuNDY2LTIwLjA4MiwxMC4xNDgtNzUuODU0LDExLjAwNS04Ny4yODEiLz4mI3hhOzxwYXRoIGQ9Ik0xNzMuMTA0LDM4LjI1NmMwLDAtMTYxLjUyMS02Ni4wMTYtMTU0LjAxMiw4NC4xMDljMS41OTcsMzEuOTM4LDQ1Ljc3OSwyNDEuNjY0LDk4LjQ3MywxNzguMzE2YzE5LjI1Ni0yMy4xNjYsMzYuNjcxLTQxLjMzNSwzNi42NzEtNDEuMzM1Ii8+JiN4YTs8cGF0aCBkPSJNMjYwLjM0OSwyNi4yMDdjLTUuNTkxLDEuNzUzLDg5Ljg0OC0zNC44ODksMTQ0LjA4NywzNC40MTdjMTkuMTU5LDI0LjQ4NC0zLjA0MywxMjQuNTE5LTU2LjE1MywyMDMuMzI5Ii8+JiN4YTs8cGF0aCBkPSJNMzQ4LjI4MiwyNjMuOTUzYzAsMCwzLjQ2MSwxNy4wMzYsNTMuNzY0LDYuNjUzYzIyLjA0LTQuNTUyLDguNzc2LDEyLjc3NC0xMy41NzcsMjMuMTU1Yy0xOC4zNDUsOC41MTQtNTkuNDc0LDEwLjY5Ni02MC4xNDYtMS4wNjljLTEuNzI5LTMwLjM1NSwyMS42NDctMjEuMTMzLDE5Ljk2LTI4LjczOWMtMS41MjUtNi44NS0xMS45NzktMTMuNTczLTE4Ljg5NC0zMC4zMzggICAgYy02LjAzNy0xNC42MzMtODIuNzk2LTEyNi44NDksMjEuMjg3LTExMC4xODNjMy44MTMtMC43ODktMjcuMTQ2LTk5LjAwMi0xMjQuNTUzLTEwMC41OTljLTk3LjM4NS0xLjU5Ny05NC4xOSwxMTkuNzYyLTk0LjE5LDExOS43NjIiIHN0eWxlPSJzdHJva2UtbGluZWpvaW46YmV2ZWw7Ii8+JiN4YTs8cGF0aCBkPSJNMTg4LjYwNCwyNzQuMzM0Yy0xMy41NzcsMTUuMTY2LTkuNTg0LDE3LjgyOS0zNi43MjMsMjMuNDE3Yy0yNy40NTksNS42Ni0xMS4zMjYsMTUuNzMzLTAuNzk3LDE4LjM2NWMxMi43NjgsMy4xOTUsNDIuMzA3LDcuNzE4LDYyLjI2Ni0yMC4yMjljNi4wNzgtOC41MDktMC4wMzYtMjIuMDg2LTguMzg1LTI1LjU0N2MtNC4wMzQtMS42NzEtOS40MjgtMy43NjUtMTYuMzYxLDMuOTk0eiIvPiYjeGE7PHBhdGggZD0iTTE4Ny43MTUsMjc0LjA2OWMtMS4zNjgtOC45MTcsMi45My0xOS41MjgsNy41MzYtMzEuOTQyYzYuOTIyLTE4LjYyNiwyMi44OTMtMzcuMjU1LDEwLjExNy05Ni4zMzljLTkuNTIzLTQ0LjAyOS03My4zOTYtOS4xNjMtNzMuNDM2LTMuMTkzYy0wLjAzOSw1Ljk2OCwyLjg4OSwzMC4yNi0xLjA2Nyw1OC41NDhjLTUuMTYyLDM2LjkxMywyMy40ODgsNjguMTMyLDU2LjQ3OSw2NC45MzgiLz4mI3hhOzxwYXRoIGQ9Ik0xNzIuNTE3LDE0MS43Yy0wLjI4OCwyLjAzOSwzLjczMyw3LjQ4LDguOTc2LDguMjA3YzUuMjM0LDAuNzMsOS43MTQtMy41MjIsOS45OTgtNS41NTljMC4yODQtMi4wMzktMy43MzItNC4yODUtOC45NzctNS4wMTVjLTUuMjM3LTAuNzMxLTkuNzE5LDAuMzMzLTkuOTk2LDIuMzY3eiIgc3R5bGU9ImZpbGw6I0ZGRkZGRjtzdHJva2Utd2lkdGg6NC4xNTU7c3Ryb2tlLWxpbmVjYXA6YnV0dDtzdHJva2UtbGluZWpvaW46bWl0ZXI7Ii8+JiN4YTs8cGF0aCBkPSJNMzMxLjk0MSwxMzcuNTQzYzAuMjg0LDIuMDM5LTMuNzMyLDcuNDgtOC45NzYsOC4yMDdjLTUuMjM4LDAuNzMtOS43MTgtMy41MjItMTAuMDA1LTUuNTU5Yy0wLjI3Ny0yLjAzOSwzLjc0LTQuMjg1LDguOTc5LTUuMDE1YzUuMjM5LTAuNzMsOS43MTgsMC4zMzMsMTAuMDAyLDIuMzY4eiIgc3R5bGU9ImZpbGw6I0ZGRkZGRjtzdHJva2Utd2lkdGg6Mi4wNzc1O3N0cm9rZS1saW5lY2FwOmJ1dHQ7c3Ryb2tlLWxpbmVqb2luOm1pdGVyOyIvPiYjeGE7PHBhdGggZD0iTTM1MC42NzYsMTIzLjQzMmMwLjg2MywxNS45OTQtMy40NDUsMjYuODg4LTMuOTg4LDQzLjkxNGMtMC44MDQsMjQuNzQ4LDExLjc5OSw1My4wNzQtNy4xOTEsODEuNDM1Ii8+JiN4YTs8cGF0aCBkPSJNMCw2MC4yMzIiIHN0eWxlPSJzdHJva2Utd2lkdGg6MzsiLz4mI3hhOzwvZz4mI3hhOzwvc3ZnPg==;" parent="sjKJRGS4V3Ahwg_5ihNp-76" vertex="1">
          <mxGeometry x="152" y="57.5" width="26.21" height="27" as="geometry" />
        </mxCell>
        <mxCell id="sjKJRGS4V3Ahwg_5ihNp-79" value="&amp;nbsp; Embedded Postgres" style="rounded=0;whiteSpace=wrap;html=1;verticalAlign=middle;align=left;" parent="sjKJRGS4V3Ahwg_5ihNp-76" vertex="1">
          <mxGeometry x="10" y="100" width="200" height="40" as="geometry" />
        </mxCell>
        <mxCell id="sjKJRGS4V3Ahwg_5ihNp-80" value="" style="shape=image;verticalLabelPosition=bottom;labelBackgroundColor=default;verticalAlign=top;aspect=fixed;imageAspect=0;image=data:image/svg+xml,PHN2ZyB4bWxucz0iaHR0cDovL3d3dy53My5vcmcvMjAwMC9zdmciIHhtbDpzcGFjZT0icHJlc2VydmUiIHZpZXdCb3g9IjAgMCA0MzIuMDcxIDQ0NS4zODMiIGhlaWdodD0iNDQ1LjM4M3B0IiB3aWR0aD0iNDMyLjA3MXB0Ij4mI3hhOzxnIHN0eWxlPSJmaWxsLXJ1bGU6bm9uemVybztjbGlwLXJ1bGU6bm9uemVybztzdHJva2U6IzAwMDAwMDtzdHJva2UtbWl0ZXJsaW1pdDo0OyIgaWQ9Im9yZ2luYWwiPiYjeGE7CTwvZz4mI3hhOzxnIHN0eWxlPSJmaWxsLXJ1bGU6bm9uemVybztjbGlwLXJ1bGU6bm9uemVybztmaWxsOm5vbmU7c3Ryb2tlOiNGRkZGRkY7c3Ryb2tlLXdpZHRoOjEyLjQ2NTE7c3Ryb2tlLWxpbmVjYXA6cm91bmQ7c3Ryb2tlLWxpbmVqb2luOnJvdW5kO3N0cm9rZS1taXRlcmxpbWl0OjQ7IiBpZD0iTGF5ZXJfeDAwMjBfMyI+JiN4YTs8cGF0aCBkPSJNMzIzLjIwNSwzMjQuMjI3YzIuODMzLTIzLjYwMSwxLjk4NC0yNy4wNjIsMTkuNTYzLTIzLjIzOWw0LjQ2MywwLjM5MmMxMy41MTcsMC42MTUsMzEuMTk5LTIuMTc0LDQxLjU4Ny03YzIyLjM2Mi0xMC4zNzYsMzUuNjIyLTI3LjcsMTMuNTcyLTIzLjE0OGMtNTAuMjk3LDEwLjM3Ni01My43NTUtNi42NTUtNTMuNzU1LTYuNjU1YzUzLjExMS03OC44MDMsNzUuMzEzLTE3OC44MzYsNTYuMTQ5LTIwMy4zMjIgICAgQzM1Mi41MTQtNS41MzQsMjYyLjAzNiwyNi4wNDksMjYwLjUyMiwyNi44NjlsLTAuNDgyLDAuMDg5Yy05LjkzOC0yLjA2Mi0yMS4wNi0zLjI5NC0zMy41NTQtMy40OTZjLTIyLjc2MS0wLjM3NC00MC4wMzIsNS45NjctNTMuMTMzLDE1LjkwNGMwLDAtMTYxLjQwOC02Ni40OTgtMTUzLjg5OSw4My42MjhjMS41OTcsMzEuOTM2LDQ1Ljc3NywyNDEuNjU1LDk4LjQ3LDE3OC4zMSAgICBjMTkuMjU5LTIzLjE2MywzNy44NzEtNDIuNzQ4LDM3Ljg3MS00Mi43NDhjOS4yNDIsNi4xNCwyMC4zMDcsOS4yNzIsMzEuOTEyLDguMTQ3bDAuODk3LTAuNzY1Yy0wLjI4MSwyLjg3Ni0wLjE1Nyw1LjY4OSwwLjM1OSw5LjAxOWMtMTMuNTcyLDE1LjE2Ny05LjU4NCwxNy44My0zNi43MjMsMjMuNDE2Yy0yNy40NTcsNS42NTktMTEuMzI2LDE1LjczNC0wLjc5NywxOC4zNjdjMTIuNzY4LDMuMTkzLDQyLjMwNSw3LjcxNiw2Mi4yNjgtMjAuMjI0ICAgIGwtMC43OTUsMy4xODhjNS4zMjUsNC4yNiw0Ljk2NSwzMC42MTksNS43Miw0OS40NTJjMC43NTYsMTguODM0LDIuMDE3LDM2LjQwOSw1Ljg1Niw0Ni43NzFjMy44MzksMTAuMzYsOC4zNjksMzcuMDUsNDQuMDM2LDI5LjQwNmMyOS44MDktNi4zODgsNTIuNi0xNS41ODIsNTQuNjc3LTEwMS4xMDciIHN0eWxlPSJmaWxsOiMwMDAwMDA7c3Ryb2tlOiMwMDAwMDA7c3Ryb2tlLXdpZHRoOjM3LjM5NTM7c3Ryb2tlLWxpbmVjYXA6YnV0dDtzdHJva2UtbGluZWpvaW46bWl0ZXI7Ii8+JiN4YTs8cGF0aCBkPSJNNDAyLjM5NSwyNzEuMjNjLTUwLjMwMiwxMC4zNzYtNTMuNzYtNi42NTUtNTMuNzYtNi42NTVjNTMuMTExLTc4LjgwOCw3NS4zMTMtMTc4Ljg0Myw1Ni4xNTMtMjAzLjMyNmMtNTIuMjctNjYuNzg1LTE0Mi43NTItMzUuMi0xNDQuMjYyLTM0LjM4bC0wLjQ4NiwwLjA4N2MtOS45MzgtMi4wNjMtMjEuMDYtMy4yOTItMzMuNTYtMy40OTZjLTIyLjc2MS0wLjM3My00MC4wMjYsNS45NjctNTMuMTI3LDE1LjkwMiAgICBjMCwwLTE2MS40MTEtNjYuNDk1LTE1My45MDQsODMuNjNjMS41OTcsMzEuOTM4LDQ1Ljc3NiwyNDEuNjU3LDk4LjQ3MSwxNzguMzEyYzE5LjI2LTIzLjE2MywzNy44NjktNDIuNzQ4LDM3Ljg2OS00Mi43NDhjOS4yNDMsNi4xNCwyMC4zMDgsOS4yNzIsMzEuOTA4LDguMTQ3bDAuOTAxLTAuNzY1Yy0wLjI4LDIuODc2LTAuMTUyLDUuNjg5LDAuMzYxLDkuMDE5Yy0xMy41NzUsMTUuMTY3LTkuNTg2LDE3LjgzLTM2LjcyMywyMy40MTYgICAgYy0yNy40NTksNS42NTktMTEuMzI4LDE1LjczNC0wLjc5NiwxOC4zNjdjMTIuNzY4LDMuMTkzLDQyLjMwNyw3LjcxNiw2Mi4yNjYtMjAuMjI0bC0wLjc5NiwzLjE4OGM1LjMxOSw0LjI2LDkuMDU0LDI3LjcxMSw4LjQyOCw0OC45NjljLTAuNjI2LDIxLjI1OS0xLjA0NCwzNS44NTQsMy4xNDcsNDcuMjU0YzQuMTkxLDExLjQsOC4zNjgsMzcuMDUsNDQuMDQyLDI5LjQwNmMyOS44MDktNi4zODgsNDUuMjU2LTIyLjk0Miw0Ny40MDUtNTAuNTU1ICAgIGMxLjUyNS0xOS42MzEsNC45NzYtMTYuNzI5LDUuMTk0LTM0LjI4bDIuNzY4LTguMzA5YzMuMTkyLTI2LjYxMSwwLjUwNy0zNS4xOTYsMTguODcyLTMxLjIwM2w0LjQ2MywwLjM5MmMxMy41MTcsMC42MTUsMzEuMjA4LTIuMTc0LDQxLjU5MS03YzIyLjM1OC0xMC4zNzYsMzUuNjE4LTI3LjcsMTMuNTczLTIzLjE0OHoiIHN0eWxlPSJmaWxsOiMzMzY3OTE7c3Ryb2tlOm5vbmU7Ii8+JiN4YTs8cGF0aCBkPSJNMjE1Ljg2NiwyODYuNDg0Yy0xLjM4NSw0OS41MTYsMC4zNDgsOTkuMzc3LDUuMTkzLDExMS40OTVjNC44NDgsMTIuMTE4LDE1LjIyMywzNS42ODgsNTAuOSwyOC4wNDVjMjkuODA2LTYuMzksNDAuNjUxLTE4Ljc1Niw0NS4zNTctNDYuMDUxYzMuNDY2LTIwLjA4MiwxMC4xNDgtNzUuODU0LDExLjAwNS04Ny4yODEiLz4mI3hhOzxwYXRoIGQ9Ik0xNzMuMTA0LDM4LjI1NmMwLDAtMTYxLjUyMS02Ni4wMTYtMTU0LjAxMiw4NC4xMDljMS41OTcsMzEuOTM4LDQ1Ljc3OSwyNDEuNjY0LDk4LjQ3MywxNzguMzE2YzE5LjI1Ni0yMy4xNjYsMzYuNjcxLTQxLjMzNSwzNi42NzEtNDEuMzM1Ii8+JiN4YTs8cGF0aCBkPSJNMjYwLjM0OSwyNi4yMDdjLTUuNTkxLDEuNzUzLDg5Ljg0OC0zNC44ODksMTQ0LjA4NywzNC40MTdjMTkuMTU5LDI0LjQ4NC0zLjA0MywxMjQuNTE5LTU2LjE1MywyMDMuMzI5Ii8+JiN4YTs8cGF0aCBkPSJNMzQ4LjI4MiwyNjMuOTUzYzAsMCwzLjQ2MSwxNy4wMzYsNTMuNzY0LDYuNjUzYzIyLjA0LTQuNTUyLDguNzc2LDEyLjc3NC0xMy41NzcsMjMuMTU1Yy0xOC4zNDUsOC41MTQtNTkuNDc0LDEwLjY5Ni02MC4xNDYtMS4wNjljLTEuNzI5LTMwLjM1NSwyMS42NDctMjEuMTMzLDE5Ljk2LTI4LjczOWMtMS41MjUtNi44NS0xMS45NzktMTMuNTczLTE4Ljg5NC0zMC4zMzggICAgYy02LjAzNy0xNC42MzMtODIuNzk2LTEyNi44NDksMjEuMjg3LTExMC4xODNjMy44MTMtMC43ODktMjcuMTQ2LTk5LjAwMi0xMjQuNTUzLTEwMC41OTljLTk3LjM4NS0xLjU5Ny05NC4xOSwxMTkuNzYyLTk0LjE5LDExOS43NjIiIHN0eWxlPSJzdHJva2UtbGluZWpvaW46YmV2ZWw7Ii8+JiN4YTs8cGF0aCBkPSJNMTg4LjYwNCwyNzQuMzM0Yy0xMy41NzcsMTUuMTY2LTkuNTg0LDE3LjgyOS0zNi43MjMsMjMuNDE3Yy0yNy40NTksNS42Ni0xMS4zMjYsMTUuNzMzLTAuNzk3LDE4LjM2NWMxMi43NjgsMy4xOTUsNDIuMzA3LDcuNzE4LDYyLjI2Ni0yMC4yMjljNi4wNzgtOC41MDktMC4wMzYtMjIuMDg2LTguMzg1LTI1LjU0N2MtNC4wMzQtMS42NzEtOS40MjgtMy43NjUtMTYuMzYxLDMuOTk0eiIvPiYjeGE7PHBhdGggZD0iTTE4Ny43MTUsMjc0LjA2OWMtMS4zNjgtOC45MTcsMi45My0xOS41MjgsNy41MzYtMzEuOTQyYzYuOTIyLTE4LjYyNiwyMi44OTMtMzcuMjU1LDEwLjExNy05Ni4zMzljLTkuNTIzLTQ0LjAyOS03My4zOTYtOS4xNjMtNzMuNDM2LTMuMTkzYy0wLjAzOSw1Ljk2OCwyLjg4OSwzMC4yNi0xLjA2Nyw1OC41NDhjLTUuMTYyLDM2LjkxMywyMy40ODgsNjguMTMyLDU2LjQ3OSw2NC45MzgiLz4mI3hhOzxwYXRoIGQ9Ik0xNzIuNTE3LDE0MS43Yy0wLjI4OCwyLjAzOSwzLjczMyw3LjQ4LDguOTc2LDguMjA3YzUuMjM0LDAuNzMsOS43MTQtMy41MjIsOS45OTgtNS41NTljMC4yODQtMi4wMzktMy43MzItNC4yODUtOC45NzctNS4wMTVjLTUuMjM3LTAuNzMxLTkuNzE5LDAuMzMzLTkuOTk2LDIuMzY3eiIgc3R5bGU9ImZpbGw6I0ZGRkZGRjtzdHJva2Utd2lkdGg6NC4xNTU7c3Ryb2tlLWxpbmVjYXA6YnV0dDtzdHJva2UtbGluZWpvaW46bWl0ZXI7Ii8+JiN4YTs8cGF0aCBkPSJNMzMxLjk0MSwxMzcuNTQzYzAuMjg0LDIuMDM5LTMuNzMyLDcuNDgtOC45NzYsOC4yMDdjLTUuMjM4LDAuNzMtOS43MTgtMy41MjItMTAuMDA1LTUuNTU5Yy0wLjI3Ny0yLjAzOSwzLjc0LTQuMjg1LDguOTc5LTUuMDE1YzUuMjM5LTAuNzMsOS43MTgsMC4zMzMsMTAuMDAyLDIuMzY4eiIgc3R5bGU9ImZpbGw6I0ZGRkZGRjtzdHJva2Utd2lkdGg6Mi4wNzc1O3N0cm9rZS1saW5lY2FwOmJ1dHQ7c3Ryb2tlLWxpbmVqb2luOm1pdGVyOyIvPiYjeGE7PHBhdGggZD0iTTM1MC42NzYsMTIzLjQzMmMwLjg2MywxNS45OTQtMy40NDUsMjYuODg4LTMuOTg4LDQzLjkxNGMtMC44MDQsMjQuNzQ4LDExLjc5OSw1My4wNzQtNy4xOTEsODEuNDM1Ii8+JiN4YTs8cGF0aCBkPSJNMCw2MC4yMzIiIHN0eWxlPSJzdHJva2Utd2lkdGg6MzsiLz4mI3hhOzwvZz4mI3hhOzwvc3ZnPg==;" parent="sjKJRGS4V3Ahwg_5ihNp-76" vertex="1">
          <mxGeometry x="152" y="106.5" width="26.21" height="27" as="geometry" />
        </mxCell>
        <mxCell id="sjKJRGS4V3Ahwg_5ihNp-81" value="&amp;nbsp; Additional DBs planned" style="rounded=0;whiteSpace=wrap;html=1;verticalAlign=middle;align=left;" parent="sjKJRGS4V3Ahwg_5ihNp-76" vertex="1">
          <mxGeometry x="10" y="150" width="200" height="40" as="geometry" />
        </mxCell>
        <mxCell id="sjKJRGS4V3Ahwg_5ihNp-82" value="&amp;nbsp; Self-Implement:&lt;br&gt;&amp;nbsp; Rust Trait &lt;i&gt;Catalog&lt;/i&gt;" style="rounded=0;whiteSpace=wrap;html=1;verticalAlign=middle;align=left;" parent="sjKJRGS4V3Ahwg_5ihNp-76" vertex="1">
          <mxGeometry x="10" y="200" width="200" height="40" as="geometry" />
        </mxCell>
        <mxCell id="sjKJRGS4V3Ahwg_5ihNp-83" value="Secret Store&lt;div&gt;&lt;span style=&quot;font-weight: normal;&quot;&gt;required&lt;/span&gt;&lt;/div&gt;" style="swimlane;whiteSpace=wrap;html=1;startSize=40;" parent="1" vertex="1">
          <mxGeometry x="1220" y="555.6099999999999" width="220" height="260" as="geometry" />
        </mxCell>
        <mxCell id="sjKJRGS4V3Ahwg_5ihNp-84" value="&amp;nbsp; Postgres, encrypted" style="rounded=0;whiteSpace=wrap;html=1;verticalAlign=middle;align=left;fillColor=#d5e8d4;strokeColor=#82b366;" parent="sjKJRGS4V3Ahwg_5ihNp-83" vertex="1">
          <mxGeometry x="10" y="49" width="200" height="40" as="geometry" />
        </mxCell>
        <mxCell id="sjKJRGS4V3Ahwg_5ihNp-85" value="" style="shape=image;verticalLabelPosition=bottom;labelBackgroundColor=default;verticalAlign=top;aspect=fixed;imageAspect=0;image=data:image/svg+xml,PHN2ZyB4bWxucz0iaHR0cDovL3d3dy53My5vcmcvMjAwMC9zdmciIHhtbDpzcGFjZT0icHJlc2VydmUiIHZpZXdCb3g9IjAgMCA0MzIuMDcxIDQ0NS4zODMiIGhlaWdodD0iNDQ1LjM4M3B0IiB3aWR0aD0iNDMyLjA3MXB0Ij4mI3hhOzxnIHN0eWxlPSJmaWxsLXJ1bGU6bm9uemVybztjbGlwLXJ1bGU6bm9uemVybztzdHJva2U6IzAwMDAwMDtzdHJva2UtbWl0ZXJsaW1pdDo0OyIgaWQ9Im9yZ2luYWwiPiYjeGE7CTwvZz4mI3hhOzxnIHN0eWxlPSJmaWxsLXJ1bGU6bm9uemVybztjbGlwLXJ1bGU6bm9uemVybztmaWxsOm5vbmU7c3Ryb2tlOiNGRkZGRkY7c3Ryb2tlLXdpZHRoOjEyLjQ2NTE7c3Ryb2tlLWxpbmVjYXA6cm91bmQ7c3Ryb2tlLWxpbmVqb2luOnJvdW5kO3N0cm9rZS1taXRlcmxpbWl0OjQ7IiBpZD0iTGF5ZXJfeDAwMjBfMyI+JiN4YTs8cGF0aCBkPSJNMzIzLjIwNSwzMjQuMjI3YzIuODMzLTIzLjYwMSwxLjk4NC0yNy4wNjIsMTkuNTYzLTIzLjIzOWw0LjQ2MywwLjM5MmMxMy41MTcsMC42MTUsMzEuMTk5LTIuMTc0LDQxLjU4Ny03YzIyLjM2Mi0xMC4zNzYsMzUuNjIyLTI3LjcsMTMuNTcyLTIzLjE0OGMtNTAuMjk3LDEwLjM3Ni01My43NTUtNi42NTUtNTMuNzU1LTYuNjU1YzUzLjExMS03OC44MDMsNzUuMzEzLTE3OC44MzYsNTYuMTQ5LTIwMy4zMjIgICAgQzM1Mi41MTQtNS41MzQsMjYyLjAzNiwyNi4wNDksMjYwLjUyMiwyNi44NjlsLTAuNDgyLDAuMDg5Yy05LjkzOC0yLjA2Mi0yMS4wNi0zLjI5NC0zMy41NTQtMy40OTZjLTIyLjc2MS0wLjM3NC00MC4wMzIsNS45NjctNTMuMTMzLDE1LjkwNGMwLDAtMTYxLjQwOC02Ni40OTgtMTUzLjg5OSw4My42MjhjMS41OTcsMzEuOTM2LDQ1Ljc3NywyNDEuNjU1LDk4LjQ3LDE3OC4zMSAgICBjMTkuMjU5LTIzLjE2MywzNy44NzEtNDIuNzQ4LDM3Ljg3MS00Mi43NDhjOS4yNDIsNi4xNCwyMC4zMDcsOS4yNzIsMzEuOTEyLDguMTQ3bDAuODk3LTAuNzY1Yy0wLjI4MSwyLjg3Ni0wLjE1Nyw1LjY4OSwwLjM1OSw5LjAxOWMtMTMuNTcyLDE1LjE2Ny05LjU4NCwxNy44My0zNi43MjMsMjMuNDE2Yy0yNy40NTcsNS42NTktMTEuMzI2LDE1LjczNC0wLjc5NywxOC4zNjdjMTIuNzY4LDMuMTkzLDQyLjMwNSw3LjcxNiw2Mi4yNjgtMjAuMjI0ICAgIGwtMC43OTUsMy4xODhjNS4zMjUsNC4yNiw0Ljk2NSwzMC42MTksNS43Miw0OS40NTJjMC43NTYsMTguODM0LDIuMDE3LDM2LjQwOSw1Ljg1Niw0Ni43NzFjMy44MzksMTAuMzYsOC4zNjksMzcuMDUsNDQuMDM2LDI5LjQwNmMyOS44MDktNi4zODgsNTIuNi0xNS41ODIsNTQuNjc3LTEwMS4xMDciIHN0eWxlPSJmaWxsOiMwMDAwMDA7c3Ryb2tlOiMwMDAwMDA7c3Ryb2tlLXdpZHRoOjM3LjM5NTM7c3Ryb2tlLWxpbmVjYXA6YnV0dDtzdHJva2UtbGluZWpvaW46bWl0ZXI7Ii8+JiN4YTs8cGF0aCBkPSJNNDAyLjM5NSwyNzEuMjNjLTUwLjMwMiwxMC4zNzYtNTMuNzYtNi42NTUtNTMuNzYtNi42NTVjNTMuMTExLTc4LjgwOCw3NS4zMTMtMTc4Ljg0Myw1Ni4xNTMtMjAzLjMyNmMtNTIuMjctNjYuNzg1LTE0Mi43NTItMzUuMi0xNDQuMjYyLTM0LjM4bC0wLjQ4NiwwLjA4N2MtOS45MzgtMi4wNjMtMjEuMDYtMy4yOTItMzMuNTYtMy40OTZjLTIyLjc2MS0wLjM3My00MC4wMjYsNS45NjctNTMuMTI3LDE1LjkwMiAgICBjMCwwLTE2MS40MTEtNjYuNDk1LTE1My45MDQsODMuNjNjMS41OTcsMzEuOTM4LDQ1Ljc3NiwyNDEuNjU3LDk4LjQ3MSwxNzguMzEyYzE5LjI2LTIzLjE2MywzNy44NjktNDIuNzQ4LDM3Ljg2OS00Mi43NDhjOS4yNDMsNi4xNCwyMC4zMDgsOS4yNzIsMzEuOTA4LDguMTQ3bDAuOTAxLTAuNzY1Yy0wLjI4LDIuODc2LTAuMTUyLDUuNjg5LDAuMzYxLDkuMDE5Yy0xMy41NzUsMTUuMTY3LTkuNTg2LDE3LjgzLTM2LjcyMywyMy40MTYgICAgYy0yNy40NTksNS42NTktMTEuMzI4LDE1LjczNC0wLjc5NiwxOC4zNjdjMTIuNzY4LDMuMTkzLDQyLjMwNyw3LjcxNiw2Mi4yNjYtMjAuMjI0bC0wLjc5NiwzLjE4OGM1LjMxOSw0LjI2LDkuMDU0LDI3LjcxMSw4LjQyOCw0OC45NjljLTAuNjI2LDIxLjI1OS0xLjA0NCwzNS44NTQsMy4xNDcsNDcuMjU0YzQuMTkxLDExLjQsOC4zNjgsMzcuMDUsNDQuMDQyLDI5LjQwNmMyOS44MDktNi4zODgsNDUuMjU2LTIyLjk0Miw0Ny40MDUtNTAuNTU1ICAgIGMxLjUyNS0xOS42MzEsNC45NzYtMTYuNzI5LDUuMTk0LTM0LjI4bDIuNzY4LTguMzA5YzMuMTkyLTI2LjYxMSwwLjUwNy0zNS4xOTYsMTguODcyLTMxLjIwM2w0LjQ2MywwLjM5MmMxMy41MTcsMC42MTUsMzEuMjA4LTIuMTc0LDQxLjU5MS03YzIyLjM1OC0xMC4zNzYsMzUuNjE4LTI3LjcsMTMuNTczLTIzLjE0OHoiIHN0eWxlPSJmaWxsOiMzMzY3OTE7c3Ryb2tlOm5vbmU7Ii8+JiN4YTs8cGF0aCBkPSJNMjE1Ljg2NiwyODYuNDg0Yy0xLjM4NSw0OS41MTYsMC4zNDgsOTkuMzc3LDUuMTkzLDExMS40OTVjNC44NDgsMTIuMTE4LDE1LjIyMywzNS42ODgsNTAuOSwyOC4wNDVjMjkuODA2LTYuMzksNDAuNjUxLTE4Ljc1Niw0NS4zNTctNDYuMDUxYzMuNDY2LTIwLjA4MiwxMC4xNDgtNzUuODU0LDExLjAwNS04Ny4yODEiLz4mI3hhOzxwYXRoIGQ9Ik0xNzMuMTA0LDM4LjI1NmMwLDAtMTYxLjUyMS02Ni4wMTYtMTU0LjAxMiw4NC4xMDljMS41OTcsMzEuOTM4LDQ1Ljc3OSwyNDEuNjY0LDk4LjQ3MywxNzguMzE2YzE5LjI1Ni0yMy4xNjYsMzYuNjcxLTQxLjMzNSwzNi42NzEtNDEuMzM1Ii8+JiN4YTs8cGF0aCBkPSJNMjYwLjM0OSwyNi4yMDdjLTUuNTkxLDEuNzUzLDg5Ljg0OC0zNC44ODksMTQ0LjA4NywzNC40MTdjMTkuMTU5LDI0LjQ4NC0zLjA0MywxMjQuNTE5LTU2LjE1MywyMDMuMzI5Ii8+JiN4YTs8cGF0aCBkPSJNMzQ4LjI4MiwyNjMuOTUzYzAsMCwzLjQ2MSwxNy4wMzYsNTMuNzY0LDYuNjUzYzIyLjA0LTQuNTUyLDguNzc2LDEyLjc3NC0xMy41NzcsMjMuMTU1Yy0xOC4zNDUsOC41MTQtNTkuNDc0LDEwLjY5Ni02MC4xNDYtMS4wNjljLTEuNzI5LTMwLjM1NSwyMS42NDctMjEuMTMzLDE5Ljk2LTI4LjczOWMtMS41MjUtNi44NS0xMS45NzktMTMuNTczLTE4Ljg5NC0zMC4zMzggICAgYy02LjAzNy0xNC42MzMtODIuNzk2LTEyNi44NDksMjEuMjg3LTExMC4xODNjMy44MTMtMC43ODktMjcuMTQ2LTk5LjAwMi0xMjQuNTUzLTEwMC41OTljLTk3LjM4NS0xLjU5Ny05NC4xOSwxMTkuNzYyLTk0LjE5LDExOS43NjIiIHN0eWxlPSJzdHJva2UtbGluZWpvaW46YmV2ZWw7Ii8+JiN4YTs8cGF0aCBkPSJNMTg4LjYwNCwyNzQuMzM0Yy0xMy41NzcsMTUuMTY2LTkuNTg0LDE3LjgyOS0zNi43MjMsMjMuNDE3Yy0yNy40NTksNS42Ni0xMS4zMjYsMTUuNzMzLTAuNzk3LDE4LjM2NWMxMi43NjgsMy4xOTUsNDIuMzA3LDcuNzE4LDYyLjI2Ni0yMC4yMjljNi4wNzgtOC41MDktMC4wMzYtMjIuMDg2LTguMzg1LTI1LjU0N2MtNC4wMzQtMS42NzEtOS40MjgtMy43NjUtMTYuMzYxLDMuOTk0eiIvPiYjeGE7PHBhdGggZD0iTTE4Ny43MTUsMjc0LjA2OWMtMS4zNjgtOC45MTcsMi45My0xOS41MjgsNy41MzYtMzEuOTQyYzYuOTIyLTE4LjYyNiwyMi44OTMtMzcuMjU1LDEwLjExNy05Ni4zMzljLTkuNTIzLTQ0LjAyOS03My4zOTYtOS4xNjMtNzMuNDM2LTMuMTkzYy0wLjAzOSw1Ljk2OCwyLjg4OSwzMC4yNi0xLjA2Nyw1OC41NDhjLTUuMTYyLDM2LjkxMywyMy40ODgsNjguMTMyLDU2LjQ3OSw2NC45MzgiLz4mI3hhOzxwYXRoIGQ9Ik0xNzIuNTE3LDE0MS43Yy0wLjI4OCwyLjAzOSwzLjczMyw3LjQ4LDguOTc2LDguMjA3YzUuMjM0LDAuNzMsOS43MTQtMy41MjIsOS45OTgtNS41NTljMC4yODQtMi4wMzktMy43MzItNC4yODUtOC45NzctNS4wMTVjLTUuMjM3LTAuNzMxLTkuNzE5LDAuMzMzLTkuOTk2LDIuMzY3eiIgc3R5bGU9ImZpbGw6I0ZGRkZGRjtzdHJva2Utd2lkdGg6NC4xNTU7c3Ryb2tlLWxpbmVjYXA6YnV0dDtzdHJva2UtbGluZWpvaW46bWl0ZXI7Ii8+JiN4YTs8cGF0aCBkPSJNMzMxLjk0MSwxMzcuNTQzYzAuMjg0LDIuMDM5LTMuNzMyLDcuNDgtOC45NzYsOC4yMDdjLTUuMjM4LDAuNzMtOS43MTgtMy41MjItMTAuMDA1LTUuNTU5Yy0wLjI3Ny0yLjAzOSwzLjc0LTQuMjg1LDguOTc5LTUuMDE1YzUuMjM5LTAuNzMsOS43MTgsMC4zMzMsMTAuMDAyLDIuMzY4eiIgc3R5bGU9ImZpbGw6I0ZGRkZGRjtzdHJva2Utd2lkdGg6Mi4wNzc1O3N0cm9rZS1saW5lY2FwOmJ1dHQ7c3Ryb2tlLWxpbmVqb2luOm1pdGVyOyIvPiYjeGE7PHBhdGggZD0iTTM1MC42NzYsMTIzLjQzMmMwLjg2MywxNS45OTQtMy40NDUsMjYuODg4LTMuOTg4LDQzLjkxNGMtMC44MDQsMjQuNzQ4LDExLjc5OSw1My4wNzQtNy4xOTEsODEuNDM1Ii8+JiN4YTs8cGF0aCBkPSJNMCw2MC4yMzIiIHN0eWxlPSJzdHJva2Utd2lkdGg6MzsiLz4mI3hhOzwvZz4mI3hhOzwvc3ZnPg==;" parent="sjKJRGS4V3Ahwg_5ihNp-83" vertex="1">
          <mxGeometry x="152" y="56.5" width="26.21" height="27" as="geometry" />
        </mxCell>
        <mxCell id="sjKJRGS4V3Ahwg_5ihNp-86" value="&amp;nbsp; Hashicorp Vault" style="rounded=0;whiteSpace=wrap;html=1;verticalAlign=middle;align=left;fillColor=#d5e8d4;strokeColor=#82b366;" parent="sjKJRGS4V3Ahwg_5ihNp-83" vertex="1">
          <mxGeometry x="10" y="99" width="200" height="40" as="geometry" />
        </mxCell>
        <mxCell id="sjKJRGS4V3Ahwg_5ihNp-87" value="&amp;nbsp; Additional Stores planned" style="rounded=0;whiteSpace=wrap;html=1;verticalAlign=middle;align=left;" parent="sjKJRGS4V3Ahwg_5ihNp-83" vertex="1">
          <mxGeometry x="10" y="149" width="200" height="40" as="geometry" />
        </mxCell>
        <mxCell id="sjKJRGS4V3Ahwg_5ihNp-88" value="&amp;nbsp; Self-Implement:&lt;br&gt;&amp;nbsp; Rust Trait &lt;i&gt;SecretStore&lt;/i&gt;" style="rounded=0;whiteSpace=wrap;html=1;verticalAlign=middle;align=left;" parent="sjKJRGS4V3Ahwg_5ihNp-83" vertex="1">
          <mxGeometry x="10" y="199" width="200" height="40" as="geometry" />
        </mxCell>
        <mxCell id="sjKJRGS4V3Ahwg_5ihNp-89" value="&lt;b&gt;Identity Provider&lt;/b&gt;&lt;br&gt;OIDC Capable&lt;br&gt;required if Authentication is enabled" style="rounded=0;whiteSpace=wrap;html=1;fillColor=#d5e8d4;strokeColor=#82b366;" parent="1" vertex="1">
          <mxGeometry x="1640" y="170" width="220" height="60" as="geometry" />
        </mxCell>
        <mxCell id="sjKJRGS4V3Ahwg_5ihNp-90" value="Object Store&lt;div&gt;&lt;span style=&quot;font-weight: normal;&quot;&gt;required&lt;/span&gt;&lt;/div&gt;" style="swimlane;whiteSpace=wrap;html=1;startSize=40;" parent="1" vertex="1">
          <mxGeometry x="1590" y="630" width="220" height="260" as="geometry" />
        </mxCell>
        <mxCell id="sjKJRGS4V3Ahwg_5ihNp-91" value="&amp;nbsp; AWS S3" style="rounded=0;whiteSpace=wrap;html=1;verticalAlign=middle;align=left;" parent="sjKJRGS4V3Ahwg_5ihNp-90" vertex="1">
          <mxGeometry x="10" y="50" width="200" height="40" as="geometry" />
        </mxCell>
        <mxCell id="sjKJRGS4V3Ahwg_5ihNp-92" value="&amp;nbsp; Self-Managed S3" style="rounded=0;whiteSpace=wrap;html=1;verticalAlign=middle;align=left;" parent="sjKJRGS4V3Ahwg_5ihNp-90" vertex="1">
          <mxGeometry x="10" y="100" width="200" height="40" as="geometry" />
        </mxCell>
        <mxCell id="sjKJRGS4V3Ahwg_5ihNp-93" value="&amp;nbsp; ADLS" style="rounded=0;whiteSpace=wrap;html=1;verticalAlign=middle;align=left;" parent="sjKJRGS4V3Ahwg_5ihNp-90" vertex="1">
          <mxGeometry x="10" y="150" width="200" height="40" as="geometry" />
        </mxCell>
        <mxCell id="sjKJRGS4V3Ahwg_5ihNp-94" value="&amp;nbsp; GCS" style="rounded=0;whiteSpace=wrap;html=1;verticalAlign=middle;align=left;" parent="sjKJRGS4V3Ahwg_5ihNp-90" vertex="1">
          <mxGeometry x="10" y="200" width="200" height="40" as="geometry" />
        </mxCell>
        <mxCell id="sjKJRGS4V3Ahwg_5ihNp-95" value="" style="shape=image;verticalLabelPosition=bottom;labelBackgroundColor=default;verticalAlign=top;aspect=fixed;imageAspect=0;image=data:image/svg+xml,PHN2ZyB4bWxucz0iaHR0cDovL3d3dy53My5vcmcvMjAwMC9zdmciIHZpZXdCb3g9IjAgMCA0MjggNTEyIiBoZWlnaHQ9IjUxMiIgd2lkdGg9IjQyOCI+JiN4YTsgIDxkZWZzPiYjeGE7ICAgIDxzdHlsZT4mI3hhOyAgICAgIC5jbHMtMSB7JiN4YTsgICAgICAgIGZpbGw6ICNlMjU0NDQ7JiN4YTsgICAgICB9JiN4YTsmI3hhOyAgICAgIC5jbHMtMSwgLmNscy0yLCAuY2xzLTMgeyYjeGE7ICAgICAgICBmaWxsLXJ1bGU6IGV2ZW5vZGQ7JiN4YTsgICAgICB9JiN4YTsmI3hhOyAgICAgIC5jbHMtMiB7JiN4YTsgICAgICAgIGZpbGw6ICM3YjFkMTM7JiN4YTsgICAgICB9JiN4YTsmI3hhOyAgICAgIC5jbHMtMyB7JiN4YTsgICAgICAgIGZpbGw6ICM1ODE1MGQ7JiN4YTsgICAgICB9JiN4YTsgICAgPC9zdHlsZT4mI3hhOyAgPC9kZWZzPiYjeGE7ICA8cGF0aCBkPSJNMzc4LDk5TDI5NSwyNTdsODMsMTU4LDM0LTE5VjExOFoiIGNsYXNzPSJjbHMtMSIvPiYjeGE7ICA8cGF0aCBkPSJNMzc4LDk5TDIxMiwxMTgsMTI3LjUsMjU3LDIxMiwzOTZsMTY2LDE5Vjk5WiIgY2xhc3M9ImNscy0yIi8+JiN4YTsgIDxwYXRoIGQ9Ik00Myw5OUwxNiwxMTFWNDAzbDI3LDEyTDIxMiwyNTdaIiBjbGFzcz0iY2xzLTMiLz4mI3hhOyAgPHBhdGggZD0iTTQyLjYzNyw5OC42NjdsMTY5LjU4Nyw0Ny4xMTFWMzcyLjQ0NEw0Mi42MzcsNDE1LjExMVY5OC42NjdaIiBjbGFzcz0iY2xzLTEiLz4mI3hhOyAgPHBhdGggZD0iTTIxMi4zMTMsMTcwLjY2N2wtNzIuMDA4LTExLjU1Niw3Mi4wMDgtODEuNzc4LDcxLjgzLDgxLjc3OFoiIGNsYXNzPSJjbHMtMyIvPiYjeGE7ICA8cGF0aCBkPSJNMjg0LjE0MywxNTkuMTExbC03MS45MTksMTEuNzMzLTcxLjkxOS0xMS43MzNWNzcuMzMzIiBjbGFzcz0iY2xzLTMiLz4mI3hhOyAgPHBhdGggZD0iTTIxMi4zMTMsMzQyLjIyMmwtNzIuMDA4LDEzLjMzNCw3Mi4wMDgsNzAuMjIyLDcxLjgzLTcwLjIyMloiIGNsYXNzPSJjbHMtMyIvPiYjeGE7ICA8cGF0aCBkPSJNMjEyLDE2TDE0MCw1NFYxNTlsNzIuMjI0LTIwLjMzM1oiIGNsYXNzPSJjbHMtMiIvPiYjeGE7ICA8cGF0aCBkPSJNMjEyLjIyNCwxOTYuNDQ0bC03MS45MTksNy44MjNWMzA5LjEwNWw3MS45MTksOC4yMjhWMTk2LjQ0NFoiIGNsYXNzPSJjbHMtMiIvPiYjeGE7ICA8cGF0aCBkPSJNMjEyLjIyNCwzNzMuMzMzTDE0MC4zMDUsMzU1LjNWNDU4LjM2M0wyMTIuMjI0LDQ5NlYzNzMuMzMzWiIgY2xhc3M9ImNscy0yIi8+JiN4YTsgIDxwYXRoIGQ9Ik0yODQuMTQzLDM1NS4zbC03MS45MTksMTguMDM4VjQ5Nmw3MS45MTktMzcuNjM3VjM1NS4zWiIgY2xhc3M9ImNscy0xIi8+JiN4YTsgIDxwYXRoIGQ9Ik0yMTIuMjI0LDE5Ni40NDRsNzEuOTE5LDcuODIzVjMwOS4xMDVsLTcxLjkxOSw4LjIyOFYxOTYuNDQ0WiIgY2xhc3M9ImNscy0xIi8+JiN4YTsgIDxwYXRoIGQ9Ik0yMTIsMTZsNzIsMzhWMTU5bC03Mi0yMFYxNloiIGNsYXNzPSJjbHMtMSIvPiYjeGE7PC9zdmc+;" parent="sjKJRGS4V3Ahwg_5ihNp-90" vertex="1">
          <mxGeometry x="160" y="55" width="25.08" height="30" as="geometry" />
        </mxCell>
        <mxCell id="sjKJRGS4V3Ahwg_5ihNp-96" value="" style="shape=image;verticalLabelPosition=bottom;labelBackgroundColor=default;verticalAlign=top;aspect=fixed;imageAspect=0;image=data:image/svg+xml,PHN2ZyB4bWxucz0iaHR0cDovL3d3dy53My5vcmcvMjAwMC9zdmciIHZpZXdCb3g9IjAgMCAxOCAxOCIgaGVpZ2h0PSIxOCIgd2lkdGg9IjE4IiBpZD0iZjJmMDQzNDktOGFlZS00NDEzLTg0YzktYTkwNTM2MTFiMzE5Ij48ZGVmcz48bGluZWFyR3JhZGllbnQgZ3JhZGllbnRVbml0cz0idXNlclNwYWNlT25Vc2UiIHkyPSI1Ljc5IiB4Mj0iOSIgeTE9IjE1LjgzIiB4MT0iOSIgaWQ9ImFkNGM0Zjk2LTA5YWEtNGY5MS1iYTEwLTVjYjhhZDUzMGY3NCI+PHN0b3Agc3RvcC1jb2xvcj0iI2IzYjNiMyIgb2Zmc2V0PSIwIi8+PHN0b3Agc3RvcC1jb2xvcj0iI2MxYzFjMSIgb2Zmc2V0PSIwLjI2Ii8+PHN0b3Agc3RvcC1jb2xvcj0iI2U2ZTZlNiIgb2Zmc2V0PSIxIi8+PC9saW5lYXJHcmFkaWVudD48L2RlZnM+PHRpdGxlPkljb24tc3RvcmFnZS04NjwvdGl0bGU+PHBhdGggZmlsbD0idXJsKCNhZDRjNGY5Ni0wOWFhLTRmOTEtYmExMC01Y2I4YWQ1MzBmNzQpIiBkPSJNLjUsNS43OWgxN2EwLDAsMCwwLDEsMCwwdjkuNDhhLjU3LjU3LDAsMCwxLS41Ny41N0gxLjA3YS41Ny41NywwLDAsMS0uNTctLjU3VjUuNzlBMCwwLDAsMCwxLC41LDUuNzlaIi8+PHBhdGggZmlsbD0iIzM3YzJiMSIgZD0iTTEuMDcsMi4xN0gxNi45M2EuNTcuNTcsMCwwLDEsLjU3LjU3VjUuNzlhMCwwLDAsMCwxLDAsMEguNWEwLDAsMCwwLDEsMCwwVjIuNzNBLjU3LjU3LDAsMCwxLDEuMDcsMi4xN1oiLz48cGF0aCBmaWxsPSIjZmZmIiBkPSJNMi44MSw2Ljg5SDE1LjE4YS4yNy4yNywwLDAsMSwuMjYuMjd2MS40YS4yNy4yNywwLDAsMS0uMjYuMjdIMi44MWEuMjcuMjcsMCwwLDEtLjI2LS4yN1Y3LjE2QS4yNy4yNywwLDAsMSwyLjgxLDYuODlaIi8+PHBhdGggZmlsbD0iIzM3YzJiMSIgZD0iTTIuODIsOS42OEgxNS4xOWEuMjcuMjcsMCwwLDEsLjI2LjI3djEuNDFhLjI3LjI3LDAsMCwxLS4yNi4yN0gyLjgyYS4yNy4yNywwLDAsMS0uMjYtLjI3VjEwQS4yNy4yNywwLDAsMSwyLjgyLDkuNjhaIi8+PHBhdGggZmlsbD0iIzI1ODI3NyIgZD0iTTIuODIsMTIuNUgxNS4xOWEuMjcuMjcsMCwwLDEsLjI2LjI3djEuNDFhLjI3LjI3LDAsMCwxLS4yNi4yN0gyLjgyYS4yNy4yNywwLDAsMS0uMjYtLjI3VjEyLjc3QS4yNy4yNywwLDAsMSwyLjgyLDEyLjVaIi8+PC9zdmc+;" parent="sjKJRGS4V3Ahwg_5ihNp-90" vertex="1">
          <mxGeometry x="160" y="155.5" width="29" height="29" as="geometry" />
        </mxCell>
        <mxCell id="sjKJRGS4V3Ahwg_5ihNp-97" value="" style="shape=image;verticalLabelPosition=bottom;labelBackgroundColor=default;verticalAlign=top;aspect=fixed;imageAspect=0;image=data:image/svg+xml,PHN2ZyB4bWxucz0iaHR0cDovL3d3dy53My5vcmcvMjAwMC9zdmciIHZpZXdCb3g9IjAgMCAyNCAyNCIgaGVpZ2h0PSIyNHB4IiB3aWR0aD0iMjRweCI+PGRlZnM+PHN0eWxlPi5jbHMtMXtmaWxsOiNhZWNiZmE7fS5jbHMtMntmaWxsOiM2NjlkZjY7fS5jbHMtM3tmaWxsOiM0Mjg1ZjQ7fS5jbHMtNHtmaWxsOiNmZmY7fTwvc3R5bGU+PC9kZWZzPjx0aXRsZT5JY29uXzI0cHhfQ2xvdWRTdG9yYWdlX0NvbG9yPC90aXRsZT48ZyBkYXRhLW5hbWU9IlByb2R1Y3QgSWNvbnMiPjxyZWN0IGhlaWdodD0iNyIgd2lkdGg9IjIwIiB5PSI0IiB4PSIyIiBjbGFzcz0iY2xzLTEiLz48cmVjdCBoZWlnaHQ9IjciIHdpZHRoPSIyIiB5PSI0IiB4PSIyMCIgY2xhc3M9ImNscy0yIi8+PHBvbHlnb24gcG9pbnRzPSIyMiA0IDIwIDQgMjAgMTEgMjIgNCIgY2xhc3M9ImNscy0zIi8+PHJlY3QgaGVpZ2h0PSI3IiB3aWR0aD0iMiIgeT0iNCIgeD0iMiIgY2xhc3M9ImNscy0yIi8+PHJlY3QgaGVpZ2h0PSIxIiB3aWR0aD0iNiIgeT0iNyIgeD0iNiIgY2xhc3M9ImNscy00Ii8+PHJlY3Qgcng9IjEuNSIgaGVpZ2h0PSIzIiB3aWR0aD0iMyIgeT0iNiIgeD0iMTUiIGNsYXNzPSJjbHMtNCIvPjxyZWN0IGhlaWdodD0iNyIgd2lkdGg9IjIwIiB5PSIxMyIgeD0iMiIgY2xhc3M9ImNscy0xIi8+PHJlY3QgaGVpZ2h0PSI3IiB3aWR0aD0iMiIgeT0iMTMiIHg9IjIwIiBjbGFzcz0iY2xzLTIiLz48cG9seWdvbiBwb2ludHM9IjIyIDEzIDIwIDEzIDIwIDIwIDIyIDEzIiBjbGFzcz0iY2xzLTMiLz48cmVjdCBoZWlnaHQ9IjciIHdpZHRoPSIyIiB5PSIxMyIgeD0iMiIgY2xhc3M9ImNscy0yIi8+PHJlY3QgaGVpZ2h0PSIxIiB3aWR0aD0iNiIgeT0iMTYiIHg9IjYiIGNsYXNzPSJjbHMtNCIvPjxyZWN0IHJ4PSIxLjUiIGhlaWdodD0iMyIgd2lkdGg9IjMiIHk9IjE1IiB4PSIxNSIgY2xhc3M9ImNscy00Ii8+PC9nPjwvc3ZnPg==;" parent="sjKJRGS4V3Ahwg_5ihNp-90" vertex="1">
          <mxGeometry x="160" y="208" width="32" height="32" as="geometry" />
        </mxCell>
        <mxCell id="sjKJRGS4V3Ahwg_5ihNp-98" value="Authorizer&lt;br&gt;&lt;span style=&quot;font-weight: normal;&quot;&gt;required if permissions are enabled&lt;/span&gt;" style="swimlane;whiteSpace=wrap;html=1;startSize=40;" parent="1" vertex="1">
          <mxGeometry x="1640" y="270" width="220" height="170" as="geometry" />
        </mxCell>
        <mxCell id="sjKJRGS4V3Ahwg_5ihNp-99" value="&amp;nbsp; OpenFGA" style="rounded=0;whiteSpace=wrap;html=1;verticalAlign=middle;align=left;fillColor=#d5e8d4;strokeColor=#82b366;" parent="sjKJRGS4V3Ahwg_5ihNp-98" vertex="1">
          <mxGeometry x="10" y="60" width="200" height="40" as="geometry" />
        </mxCell>
        <mxCell id="sjKJRGS4V3Ahwg_5ihNp-100" value="&amp;nbsp; Self-Implement: &lt;br&gt;&amp;nbsp; Rust Trait &lt;i&gt;Authorizer&lt;/i&gt;" style="rounded=0;whiteSpace=wrap;html=1;verticalAlign=middle;align=left;" parent="sjKJRGS4V3Ahwg_5ihNp-98" vertex="1">
          <mxGeometry x="10" y="110" width="200" height="40" as="geometry" />
        </mxCell>
        <mxCell id="sjKJRGS4V3Ahwg_5ihNp-101" value="" style="shape=image;verticalLabelPosition=bottom;labelBackgroundColor=default;verticalAlign=top;aspect=fixed;imageAspect=0;image=data:image/svg+xml,PHN2ZyB4bWxucz0iaHR0cDovL3d3dy53My5vcmcvMjAwMC9zdmciIGZpbGw9Im5vbmUiIHZpZXdCb3g9IjAgMCAxMTYxIDI3OCIgaGVpZ2h0PSIyNzgiIHdpZHRoPSIxMTYxIj4mI3hhOzxwYXRoIGZpbGw9IndoaXRlIiBkPSJNMzY2LjE4NyAxMjEuMzgyVjE1Mi4wOTJDMzY2LjE4NyAxODUuNTc3IDM4Ni43MjIgMjA0LjA3NyA0MTguNzI3IDIwNC4wNzdDNDUwLjczMiAyMDQuMDc3IDQ3MS4wODIgMTg1LjU3NyA0NzEuMDgyIDE1Mi4wOTJWMTIxLjM4MkM0NzEuMDgyIDg3Ljg5NzUgNDUwLjczMiA2OS4zOTc1IDQxOC43MjcgNjkuMzk3NUMzODYuNzIyIDY5LjM5NzUgMzY2LjE4NyA4Ny44OTc1IDM2Ni4xODcgMTIxLjM4MlpNMzg3LjY0NyAxMjAuNjQyQzM4Ny42NDcgMTAxLjAzMiAzOTkuMTE3IDg4LjQ1MjUgNDE4LjcyNyA4OC40NTI1QzQzOC4xNTIgODguNDUyNSA0NDkuNjIyIDEwMS4wMzIgNDQ5LjYyMiAxMjAuNjQyVjE1Mi44MzJDNDQ5LjYyMiAxNzIuNDQyIDQzOC4xNTIgMTg1LjAyMiA0MTguNzI3IDE4NS4wMjJDMzk5LjExNyAxODUuMDIyIDM4Ny42NDcgMTcyLjQ0MiAzODcuNjQ3IDE1Mi44MzJWMTIwLjY0MloiLz4mI3hhOzxwYXRoIGZpbGw9IndoaXRlIiBkPSJNNDg5LjMyNyAyMzguNDg3SDUwOS40OTJWMTg4LjUzN0g1MTEuMzQyQzUxNi41MjIgMTk2LjQ5MiA1MjUuNzcyIDIwNC4wNzcgNTQyLjYwNyAyMDQuMDc3QzU2NC45OTIgMjA0LjA3NyA1ODQuNDE3IDE4NS41NzcgNTg0LjQxNyAxNTUuNzkyQzU4NC40MTcgMTI2LjE5MiA1NjQuOTkyIDEwNy42OTIgNTQyLjYwNyAxMDcuNjkyQzUyNS43NzIgMTA3LjY5MiA1MTYuNTIyIDExNS4yNzcgNTEwLjk3MiAxMjMuNjAySDUwOS4xMjJWMTEwLjI4Mkg0ODkuMzI3VjIzOC40ODdaTTUzNi42ODcgMTg2LjUwMkM1MjAuOTYyIDE4Ni41MDIgNTA5LjMwNyAxNzUuMDMyIDUwOS4zMDcgMTU1Ljc5MkM1MDkuMzA3IDEzNi41NTIgNTIwLjk2MiAxMjUuMDgyIDUzNi42ODcgMTI1LjA4MkM1NTIuNTk3IDEyNS4wODIgNTY0LjA2NyAxMzYuNTUyIDU2NC4wNjcgMTU1Ljc5MkM1NjQuMDY3IDE3NS4yMTcgNTUyLjU5NyAxODYuNTAyIDUzNi42ODcgMTg2LjUwMloiLz4mI3hhOzxwYXRoIGZpbGw9IndoaXRlIiBkPSJNNTk1Ljk2NSAxNTUuNDIyQzU5NS45NjUgMTg0LjA5NyA2MTQuODM1IDIwNC4wNzcgNjQyLjU4NSAyMDQuMDc3QzY2Ny43NDUgMjA0LjA3NyA2NzguNDc1IDE4OS42NDcgNjgzLjg0IDE4MC4wMjdMNjY3LjAwNSAxNzAuOTYyQzY2My4zMDUgMTc4LjkxNyA2NTYuODMgMTg2LjUwMiA2NDIuOTU1IDE4Ni41MDJDNjI4LjM0IDE4Ni41MDIgNjE3LjYxIDE3Ni4zMjcgNjE2Ljg3IDE2Mi4yNjdINjg2LjA2VjE1My45NDJDNjg2LjA2IDEyNi4wMDcgNjY4LjMgMTA3LjUwNyA2NDEuODQ1IDEwNy41MDdDNjE1LjAyIDEwNy41MDcgNTk1Ljk2NSAxMjYuOTMyIDU5NS45NjUgMTU1LjQyMlpNNjE3LjA1NSAxNDYuNTQyQzYxOC43MiAxMzMuNzc3IDYyNy42IDEyNS4wODIgNjQxLjY2IDEyNS4wODJDNjU1LjE2NSAxMjUuMDgyIDY2NC4yMyAxMzMuNDA3IDY2NS4zNCAxNDYuNTQySDYxNy4wNTVaIi8+JiN4YTs8cGF0aCBmaWxsPSJ3aGl0ZSIgZD0iTTcwMi41MTEgMTEwLjI4MlYyMDEuNDg3SDcyMi42NzZWMTU0LjY4MkM3MjIuNjc2IDEzNS44MTIgNzMyLjQ4MSAxMjUuMjY3IDc0Ny42NTEgMTI1LjI2N0M3NjEuMTU2IDEyNS4yNjcgNzY5LjExMSAxMzIuNDgyIDc2OS4xMTEgMTQ3LjgzN1YyMDEuNDg3SDc4OS40NjFWMTQ2LjcyN0M3ODkuNDYxIDEyMy40MTcgNzc0LjY2MSAxMDguNjE3IDc1My43NTYgMTA4LjYxN0M3MzYuMzY2IDEwOC42MTcgNzI4LjIyNiAxMTYuMzg3IDcyNC4xNTYgMTI0LjM0Mkg3MjIuMzA2VjExMC4yODJINzAyLjUxMVoiLz4mI3hhOzxwYXRoIGZpbGw9IndoaXRlIiBkPSJNODExLjQ1NiA3MS45ODc1VjIwMS40ODdIODMyLjkxNVYxNDYuMTcySDg4OS4zNDFWMTI2LjkzMkg4MzIuOTE1VjkxLjQxMjVIODkzLjA0MVY3MS45ODc1SDgxMS40NTZaIi8+JiN4YTs8cGF0aCBmaWxsPSJ3aGl0ZSIgZD0iTTkwNC4yMDQgMTUxLjcyMkM5MDQuMjA0IDE4NS4yMDcgOTI0LjczOSAyMDQuMDc3IDk1Ny4xMTQgMjA0LjA3N0M5ODguNzQ5IDIwNC4wNzcgMTAwNy4wNiAxODUuNzYyIDEwMDcuMDYgMTU1LjYwN1YxMzcuMjkySDk1Mi4xMTlWMTU1LjYwN0g5ODUuOTc0VjE1OC4wMTJDOTg1Ljk3NCAxNzQuNDc3IDk3Ni4zNTQgMTg1LjAyMiA5NTcuMTE0IDE4NS4wMjJDOTM3LjY4OSAxODUuMDIyIDkyNS42NjQgMTcyLjQ0MiA5MjUuNjY0IDE1MS45MDdWMTIxLjU2N0M5MjUuNjY0IDEwMS4wMzIgOTM3LjY4OSA4OC40NTI1IDk1Ny4xMTQgODguNDUyNUM5NzUuOTg0IDg4LjQ1MjUgOTg0Ljg2NCA5OS41NTI1IDk4NC44NjQgMTE0LjkwN1YxMTcuMzEySDEwMDYuMzJWMTE1LjI3N0MxMDA2LjMyIDg3LjcxMjUgOTg5LjExOSA2OS4zOTc1IDk1Ny4xMTQgNjkuMzk3NUM5MjQuOTI0IDY5LjM5NzUgOTA0LjIwNCA4OC4yNjc1IDkwNC4yMDQgMTIxLjkzN1YxNTEuNzIyWiIvPiYjeGE7PHBhdGggZmlsbD0id2hpdGUiIGQ9Ik0xMDUwLjQgNzEuOTg3NUwxMDEyLjI5IDIwMS40ODdIMTAzNC4zTDEwNDMgMTcxLjMzMkgxMDkxLjFMMTA5OS43OSAyMDEuNDg3SDExMjEuNjJMMTA4My41MSA3MS45ODc1SDEwNTAuNFpNMTA0OC4xOCAxNTEuOTA3TDEwNjYuMTIgODkuOTMyNUgxMDY3Ljk3TDEwODUuNzMgMTUxLjkwN0gxMDQ4LjE4WiIvPiYjeGE7PHBhdGggZmlsbD0id2hpdGUiIGQ9Ik0xMTExLjYyIDcxLjUzNzFWNzUuMjc4NkgxMTE5LjQzVjk2LjQ4MDJIMTEyMy41MlY3NS4yNzg2SDExMzEuMzNWNzEuNTM3MUgxMTExLjYyWiIvPiYjeGE7PHBhdGggZmlsbD0id2hpdGUiIGQ9Ik0xMTMzLjk3IDcxLjUzNzFWOTYuNDgwMkgxMTM3Ljk2Vjc1LjgxMzFIMTEzOC4zMkwxMTQ0LjQ1IDk2LjQ4MDJIMTE1MC4yNUwxMTU2LjM1IDc1LjgxMzFIMTE1Ni43Vjk2LjQ4MDJIMTE2MC43M1Y3MS41MzcxSDExNTMuNjRMMTE0Ny41MSA5Mi4zMTEySDExNDcuMTVMMTE0MS4wNiA3MS41MzcxSDExMzMuOTdaIi8+JiN4YTs8cGF0aCBmaWxsPSJibGFjayIgZD0iTTIyMS4xMDYgMC43NDYwOTRINTUuNjg5OEMyNC45MzY3IDAuNzQ2MDk0IDAuMDA2MzQ3NjYgMjUuNjc2NCAwLjAwNjM0NzY2IDU2LjQyOTZWMjIxLjg0NkMwLjAwNjM0NzY2IDI1Mi41OTkgMjQuOTM2NyAyNzcuNTI5IDU1LjY4OTggMjc3LjUyOUgyMjEuMTA2QzI1MS44NTkgMjc3LjUyOSAyNzYuNzg5IDI1Mi41OTkgMjc2Ljc4OSAyMjEuODQ2VjU2LjQyOTZDMjc2Ljc4OSAyNS42NzY0IDI1MS44NTkgMC43NDYwOTQgMjIxLjEwNiAwLjc0NjA5NFoiLz4mI3hhOzxwYXRoIGZpbGw9IndoaXRlIiBkPSJNMTY0LjUxNCA2OS40NTQ0QzE2NC41MTcgNzIuODg4MyAxNjUuODg3IDc2LjE4MDYgMTY4LjMyNCA3OC42MDg3QzE3MC43NiA4MS4wMzY5IDE3NC4wNjMgODIuNDAyNSAxNzcuNTA4IDgyLjQwNThDMTgwLjk1NCA4Mi40MDI1IDE4NC4yNTcgODEuMDM2OSAxODYuNjkzIDc4LjYwODdDMTg5LjEyOSA3Ni4xODA2IDE5MC40OTkgNzIuODg4MyAxOTAuNTAzIDY5LjQ1NDRDMTkwLjQ5OSA2Ni4wMjA0IDE4OS4xMjkgNjIuNzI4MSAxODYuNjkzIDYwLjNDMTg0LjI1NyA1Ny44NzE4IDE4MC45NTQgNTYuNTA2MiAxNzcuNTA4IDU2LjUwMjlDMTc0LjA2MyA1Ni41MDYyIDE3MC43NiA1Ny44NzE4IDE2OC4zMjQgNjAuM0MxNjUuODg3IDYyLjcyODEgMTY0LjUxNyA2Ni4wMjA0IDE2NC41MTQgNjkuNDU0NFoiLz4mI3hhOzxwYXRoIGZpbGw9IndoaXRlIiBkPSJNODYuMjkzIDIwOC43NEM4Ni4yOTYzIDIxMi4xNzMgODcuNjY2NCAyMTUuNDY2IDkwLjEwMjYgMjE3Ljg5NEM5Mi41Mzg4IDIyMC4zMjIgOTUuODQyIDIyMS42ODggOTkuMjg3MyAyMjEuNjkxQzEwMi43MzMgMjIxLjY4OCAxMDYuMDM2IDIyMC4zMjIgMTA4LjQ3MiAyMTcuODk0QzExMC45MDggMjE1LjQ2NiAxMTIuMjc4IDIxMi4xNzMgMTEyLjI4MiAyMDguNzRDMTEyLjI3OCAyMDUuMzA2IDExMC45MDggMjAyLjAxMyAxMDguNDcyIDE5OS41ODVDMTA2LjAzNiAxOTcuMTU3IDEwMi43MzMgMTk1Ljc5MSA5OS4yODczIDE5NS43ODhDOTUuODQyIDE5NS43OTEgOTIuNTM4OCAxOTcuMTU3IDkwLjEwMjYgMTk5LjU4NUM4Ny42NjY0IDIwMi4wMTMgODYuMjk2MyAyMDUuMzA2IDg2LjI5MyAyMDguNzRaIi8+JiN4YTs8cGF0aCBmaWxsPSJ3aGl0ZSIgZD0iTTE2My41NTUgMTM5LjA5N0MxNjMuNTU4IDE0Mi41MzEgMTY0LjkyOCAxNDUuODIzIDE2Ny4zNjQgMTQ4LjI1MUMxNjkuODAxIDE1MC42NzkgMTczLjEwNCAxNTIuMDQ1IDE3Ni41NDkgMTUyLjA0OEMxNzkuOTk0IDE1Mi4wNDUgMTgzLjI5OCAxNTAuNjc5IDE4NS43MzQgMTQ4LjI1MUMxODguMTcgMTQ1LjgyMyAxODkuNTQgMTQyLjUzMSAxODkuNTQzIDEzOS4wOTdDMTg5LjU0IDEzNS42NjMgMTg4LjE3IDEzMi4zNzEgMTg1LjczNCAxMjkuOTQzQzE4My4yOTggMTI3LjUxNCAxNzkuOTk0IDEyNi4xNDkgMTc2LjU0OSAxMjYuMTQ2QzE3My4xMDQgMTI2LjE0OSAxNjkuODAxIDEyNy41MTQgMTY3LjM2NCAxMjkuOTQzQzE2NC45MjggMTMyLjM3MSAxNjMuNTU4IDEzNS42NjMgMTYzLjU1NSAxMzkuMDk3WiIvPiYjeGE7PHBhdGggZmlsbD0id2hpdGUiIGQ9Ik00Ni4xOTE0IDEzOS4wOTdDNDYuMTk0NyAxNDIuNTMxIDQ3LjU2NDggMTQ1LjgyMyA1MC4wMDEgMTQ4LjI1MUM1Mi40MzcyIDE1MC42NzkgNTUuNzQwNSAxNTIuMDQ1IDU5LjE4NTggMTUyLjA0OEM2Mi42MzExIDE1Mi4wNDUgNjUuOTM0NCAxNTAuNjc5IDY4LjM3MDYgMTQ4LjI1MUM3MC44MDY4IDE0NS44MjMgNzIuMTc2OSAxNDIuNTMxIDcyLjE4MDIgMTM5LjA5N0M3Mi4xNzY5IDEzNS42NjMgNzAuODA2OCAxMzIuMzcxIDY4LjM3MDYgMTI5Ljk0M0M2NS45MzQ0IDEyNy41MTQgNjIuNjMxMSAxMjYuMTQ5IDU5LjE4NTggMTI2LjE0NkM1NS43NDA1IDEyNi4xNDkgNTIuNDM3MiAxMjcuNTE0IDUwLjAwMSAxMjkuOTQzQzQ3LjU2NDggMTMyLjM3MSA0Ni4xOTQ3IDEzNS42NjMgNDYuMTkxNCAxMzkuMDk3WiIvPiYjeGE7PHBhdGggZmlsbD0idXJsKCNwYWludDBfbGluZWFyXzE0NF81NzUwKSIgZD0iTTExMC4xIDc2LjcyNjVDMTEwLjYzNyA3NS44Nzk4IDExMS4zNzMgNzUuMTc2OSAxMTIuMjQ1IDc0LjY3OTNDMTEzLjExNyA3NC4xODE3IDExNC4wOTkgNzMuOTA0NSAxMTUuMTAzIDczLjg3MkgxMjIuNzE5QzEyMy43MjQgNzMuOTAyMyAxMjQuNzA2IDc0LjE3ODYgMTI1LjU3OCA3NC42NzY0QzEyNi40NTEgNzUuMTc0MiAxMjcuMTg3IDc1Ljg3ODMgMTI3LjcyMiA3Ni43MjY1QzEyOC45MTQgNzguNDYzNyAxMzAuNTEzIDc5Ljg4NDggMTMyLjM4MSA4MC44NjY2QzEzNC4yNDkgODEuODQ4NCAxMzYuMzI5IDgyLjM2MTMgMTM4LjQ0IDgyLjM2MDhDMTQwLjM3MyA4Mi4zNjQzIDE0Mi4yODEgODEuOTM2MSAxNDQuMDI1IDgxLjEwNzhDMTQ1Ljc3IDgwLjI3OTQgMTQ3LjMwNiA3OS4wNzIgMTQ4LjUyMSA3Ny41NzQyQzE0OS43NTIgNzYuMDYxOSAxNTAuNjI2IDc0LjI5MzEgMTUxLjA3OCA3Mi4zOTg2QzE1MS41MzEgNzAuNTA0MiAxNTEuNTUgNjguNTMyNSAxNTEuMTM0IDY2LjYyOTdDMTUwLjYwOCA2NC4xNTA0IDE0OS4zNTkgNjEuODgxMyAxNDcuNTQzIDYwLjEwNzJDMTQ1LjcyNyA1OC4zMzMxIDE0My40MjYgNTcuMTMyOSAxNDAuOTI5IDU2LjY1NzRDMTM4LjM3NiA1Ni4xNjYxIDEzNS43MzQgNTYuNDQ3MiAxMzMuMzQyIDU3LjQ2NDZDMTMwLjk1MSA1OC40ODIgMTI4LjkyIDYwLjE4OTIgMTI3LjUwOSA2Mi4zNjY1QzEyNi45NDkgNjMuMTYzNiAxMjYuMTk4IDYzLjgwODggMTI1LjMyNSA2NC4yNDQxQzEyNC40NTEgNjQuNjc5NCAxMjMuNDgzIDY0Ljg5MDkgMTIyLjUwNyA2NC44NTk2SDExNS4yNEMxMTQuMjY1IDY0Ljg4NTQgMTEzLjI5OSA2NC42NzE0IDExMi40MjYgNjQuMjM2NkMxMTEuNTU0IDYzLjgwMTggMTEwLjgwMiA2My4xNTk1IDExMC4yMzggNjIuMzY2NUMxMDguODEzIDYwLjIxMjkgMTA2Ljc3NyA1OC41MzE0IDEwNC4zODkgNTcuNTM2N0MxMDIuMDAxIDU2LjU0MiA5OS4zNjkyIDU2LjI3OTMgOTYuODMwNyA1Ni43ODIxQzk0LjMzNDYgNTcuMjYwNyA5Mi4wMzUzIDU4LjQ2MTggOTAuMjIwMiA2MC4yMzU0Qzg4LjQwNTEgNjIuMDA5IDg3LjE1NDcgNjQuMjc2NCA4Ni42MjUyIDY2Ljc1NDNDODYuMjE2MiA2OC42NTc1IDg2LjIzODYgNzAuNjI3NiA4Ni42OTA5IDcyLjUyMTFDODcuMTQzMSA3NC40MTQ1IDg4LjAxMzcgNzYuMTgzNCA4OS4yMzkxIDc3LjY5ODhDOTAuNDU3NSA3OS4xOTU2IDkxLjk5NiA4MC40MDIxIDkzLjc0MjIgODEuMjMwMkM5NS40ODg0IDgyLjA1ODQgOTcuMzk4MiA4Mi40ODcyIDk5LjMzMiA4Mi40ODU1QzEwMS40NjMgODIuNDgwMyAxMDMuNTYgODEuOTUyMiAxMDUuNDM4IDgwLjk0NzlDMTA3LjMxNiA3OS45NDM1IDEwOC45MTggNzguNDkzNyAxMTAuMSA3Ni43MjY1WiIvPiYjeGE7PHBhdGggZmlsbD0idXJsKCNwYWludDFfbGluZWFyXzE0NF81NzUwKSIgZD0iTTEyOS42NTYgMTExLjYyOEMxMzAuMTkzIDExMC43ODIgMTMwLjkyOSAxMTAuMDc5IDEzMS44MDEgMTA5LjU4MUMxMzIuNjczIDEwOS4wODMgMTMzLjY1NCAxMDguODA2IDEzNC42NTkgMTA4Ljc3NEgxNDIuMjc1QzE0My4yOCAxMDguODA0IDE0NC4yNjIgMTA5LjA4IDE0NS4xMzQgMTA5LjU3OEMxNDYuMDA3IDExMC4wNzYgMTQ2Ljc0MyAxMTAuNzggMTQ3LjI3OCAxMTEuNjI4QzE0OC40NyAxMTMuMzY1IDE1MC4wNjkgMTE0Ljc4NyAxNTEuOTM3IDExNS43NjhDMTUzLjgwNSAxMTYuNzUgMTU1Ljg4NSAxMTcuMjYzIDE1Ny45OTYgMTE3LjI2M0MxNTkuOTI4IDExNy4yNjYgMTYxLjgzNyAxMTYuODM4IDE2My41ODEgMTE2LjAxQzE2NS4zMjYgMTE1LjE4MSAxNjYuODYyIDExMy45NzQgMTY4LjA3NyAxMTIuNDc2QzE2OS4zMDggMTEwLjk2NCAxNzAuMTgyIDEwOS4xOTUgMTcwLjYzNCAxMDcuM0MxNzEuMDg3IDEwNS40MDYgMTcxLjEwNiAxMDMuNDM0IDE3MC42OSAxMDEuNTMxQzE3MC4xNjQgOTkuMDUyMiAxNjguOTE1IDk2Ljc4MzEgMTY3LjA5OSA5NS4wMDlDMTY1LjI4MyA5My4yMzQ5IDE2Mi45ODIgOTIuMDM0OCAxNjAuNDg1IDkxLjU1OTNDMTU3LjkzMiA5MS4wNjc5IDE1NS4yOSA5MS4zNDkxIDE1Mi44OTggOTIuMzY2NUMxNTAuNTA3IDkzLjM4MzggMTQ4LjQ3NiA5NS4wOTEgMTQ3LjA2NSA5Ny4yNjg0QzE0Ni41MDUgOTguMDY1NCAxNDUuNzU0IDk4LjcxMDcgMTQ0Ljg4MSA5OS4xNDU5QzE0NC4wMDcgOTkuNTgxMiAxNDMuMDM5IDk5Ljc5MjcgMTQyLjA2MyA5OS43NjE0SDEzNC43OTZDMTMzLjgyMSA5OS43ODcyIDEzMi44NTUgOTkuNTczMiAxMzEuOTgyIDk5LjEzODRDMTMxLjExIDk4LjcwMzYgMTMwLjM1OCA5OC4wNjEzIDEyOS43OTQgOTcuMjY4NEMxMjguMzY5IDk1LjExNDcgMTI2LjMzMyA5My40MzMyIDEyMy45NDUgOTIuNDM4NUMxMjEuNTU3IDkxLjQ0MzggMTE4LjkyNSA5MS4xODExIDExNi4zODcgOTEuNjgzOUMxMTMuODkxIDkyLjE2MjUgMTExLjU5MSA5My4zNjM2IDEwOS43NzYgOTUuMTM3MkMxMDcuOTYxIDk2LjkxMDggMTA2LjcxMSA5OS4xNzgyIDEwNi4xODEgMTAxLjY1NkMxMDUuNzcyIDEwMy41NTkgMTA1Ljc5NSAxMDUuNTI5IDEwNi4yNDcgMTA3LjQyM0MxMDYuNjk5IDEwOS4zMTYgMTA3LjU3IDExMS4wODUgMTA4Ljc5NSAxMTIuNjAxQzExMC4wMTQgMTE0LjA5NyAxMTEuNTUyIDExNS4zMDQgMTEzLjI5OCAxMTYuMTMyQzExNS4wNDQgMTE2Ljk2IDExNi45NTQgMTE3LjM4OSAxMTguODg4IDExNy4zODdDMTIxLjAxOSAxMTcuMzgyIDEyMy4xMTYgMTE2Ljg1NCAxMjQuOTk0IDExNS44NUMxMjYuODcyIDExNC44NDUgMTI4LjQ3MyAxMTMuMzk2IDEyOS42NTYgMTExLjYyOFoiLz4mI3hhOzxwYXRoIGZpbGw9InVybCgjcGFpbnQyX2xpbmVhcl8xNDRfNTc1MCkiIGQ9Ik05Mi42NDg3IDE3OS4yMjRDOTEuNzc2NiAxNzkuNzIyIDkxLjA0MDEgMTgwLjQyNCA5MC41MDM1IDE4MS4yNzFDODkuMzIwOCAxODMuMDM4IDg3LjcxOTggMTg0LjQ4OCA4NS44NDE4IDE4NS40OTNDODMuOTYzOCAxODYuNDk3IDgxLjg2NjYgMTg3LjAyNSA3OS43MzUzIDE4Ny4wM0M3Ny44MDE1IDE4Ny4wMzIgNzUuODkxNyAxODYuNjAzIDc0LjE0NTUgMTg1Ljc3NUM3Mi4zOTkzIDE4NC45NDcgNzAuODYwOCAxODMuNzQgNjkuNjQyNCAxODIuMjQ0QzY4LjQxNyAxODAuNzI4IDY3LjU0NjQgMTc4Ljk1OSA2Ny4wOTQyIDE3Ny4wNjZDNjYuNjQxOSAxNzUuMTcyIDY2LjYxOTUgMTczLjIwMiA2Ny4wMjg1IDE3MS4yOTlDNjcuNTU4IDE2OC44MjEgNjguODA4NCAxNjYuNTU0IDcwLjYyMzUgMTY0Ljc4QzcyLjQzODYgMTYzLjAwNiA3NC43Mzc5IDE2MS44MDUgNzcuMjM0IDE2MS4zMjdDNzkuNzcyNSAxNjAuODI0IDgyLjQwMzggMTYxLjA4NyA4NC43OTE5IDE2Mi4wODFDODcuMTc5OSAxNjMuMDc2IDg5LjIxNjMgMTY0Ljc1OCA5MC42NDEgMTY2LjkxMUM5MS4yMDU0IDE2Ny43MDQgOTEuOTU3MSAxNjguMzQ2IDkyLjgyOTYgMTY4Ljc4MUM5My43MDIxIDE2OS4yMTYgOTQuNjY4NiAxNjkuNDMgOTUuNjQzNyAxNjkuNDA0SDEwMi45MUMxMDMuODg2IDE2OS40MzYgMTA0Ljg1NSAxNjkuMjI0IDEwNS43MjggMTY4Ljc4OUMxMDYuNjAxIDE2OC4zNTQgMTA3LjM1MiAxNjcuNzA4IDEwNy45MTMgMTY2LjkxMUMxMDkuMzIzIDE2NC43MzQgMTExLjM1NCAxNjMuMDI3IDExMy43NDYgMTYyLjAwOUMxMTYuMTM3IDE2MC45OTIgMTE4Ljc3OSAxNjAuNzExIDEyMS4zMzIgMTYxLjIwMkMxMjMuODMgMTYxLjY3OCAxMjYuMTMxIDE2Mi44NzggMTI3Ljk0NiAxNjQuNjUyQzEyOC43MjMgMTY1LjQxMSAxMjkuMzk2IDE2Ni4yNiAxMjkuOTUzIDE2Ny4xNzhDMTMwLjQ5IDE2Ny44NDkgMTMxLjE2OCAxNjguMzk2IDEzMS45NCAxNjguNzgxQzEzMi44MTMgMTY5LjIxNiAxMzMuNzc5IDE2OS40MyAxMzQuNzU0IDE2OS40MDRIMTQyLjAyMUMxNDIuOTk3IDE2OS40MzYgMTQzLjk2NSAxNjkuMjI0IDE0NC44MzkgMTY4Ljc4OUMxNDUuNzEyIDE2OC4zNTQgMTQ2LjQ2MyAxNjcuNzA4IDE0Ny4wMjMgMTY2LjkxMUMxNDguNDM0IDE2NC43MzQgMTUwLjQ2NSAxNjMuMDI3IDE1Mi44NTYgMTYyLjAwOUMxNTUuMjQ4IDE2MC45OTIgMTU3Ljg5IDE2MC43MTEgMTYwLjQ0MyAxNjEuMjAyQzE2Mi45NCAxNjEuNjc4IDE2NS4yNDEgMTYyLjg3OCAxNjcuMDU3IDE2NC42NTJDMTY4Ljg3MyAxNjYuNDI2IDE3MC4xMjIgMTY4LjY5NSAxNzAuNjQ4IDE3MS4xNzRDMTcxLjA2NCAxNzMuMDc3IDE3MS4wNDUgMTc1LjA0OSAxNzAuNTkyIDE3Ni45NDNDMTcwLjE0IDE3OC44MzggMTY5LjI2NiAxODAuNjA3IDE2OC4wMzUgMTgyLjExOUMxNjYuODIgMTgzLjYxNyAxNjUuMjg0IDE4NC44MjQgMTYzLjUzOSAxODUuNjUyQzE2MS43OTUgMTg2LjQ4MSAxNTkuODg3IDE4Ni45MDkgMTU3Ljk1NCAxODYuOTA2QzE1NS44NDMgMTg2LjkwNiAxNTMuNzYzIDE4Ni4zOTMgMTUxLjg5NSAxODUuNDExQzE1MC4wMjcgMTg0LjQyOSAxNDguNDI4IDE4My4wMDggMTQ3LjIzNiAxODEuMjcxQzE0Ni43MDEgMTgwLjQyMyAxNDUuOTY1IDE3OS43MTkgMTQ1LjA5MiAxNzkuMjIxQzE0NC4yMiAxNzguNzIzIDE0My4yMzggMTc4LjQ0NyAxNDIuMjMzIDE3OC40MTdIMTM0LjYxN0MxMzMuNjEzIDE3OC40NDkgMTMyLjYzMSAxNzguNzI2IDEzMS43NTkgMTc5LjIyNEMxMzAuODg3IDE3OS43MjIgMTMwLjE1MSAxODAuNDI0IDEyOS42MTQgMTgxLjI3MUMxMjguNDMyIDE4My4wMzggMTI2LjgzIDE4NC40ODggMTI0Ljk1MiAxODUuNDkzQzEyMy4wNzQgMTg2LjQ5NyAxMjAuOTc3IDE4Ny4wMjUgMTE4Ljg0NiAxODcuMDNDMTE2LjkxMiAxODcuMDMyIDExNS4wMDIgMTg2LjYwMyAxMTMuMjU2IDE4NS43NzVDMTExLjUxIDE4NC45NDcgMTA5Ljk3MiAxODMuNzQgMTA4Ljc1MyAxODIuMjQ0QzEwOC4zMTkgMTgxLjcwNyAxMDcuOTMgMTgxLjEzOSAxMDcuNTg4IDE4MC41NDRDMTA3LjEzNCAxODAuMDE3IDEwNi41OTEgMTc5LjU2OSAxMDUuOTgyIDE3OS4yMjFDMTA1LjEwOSAxNzguNzIzIDEwNC4xMjcgMTc4LjQ0NyAxMDMuMTIzIDE3OC40MTdIOTUuNTA2MUM5NC41MDE4IDE3OC40NDkgOTMuNTIwNyAxNzguNzI2IDkyLjY0ODcgMTc5LjIyNFoiLz4mI3hhOzxwYXRoIGZpbGw9InVybCgjcGFpbnQzX2xpbmVhcl8xNDRfNTc1MCkiIGQ9Ik0xNTEuMzU2IDIxNC4wNDZDMTUwLjQ4NCAyMTQuNTQzIDE0OS43NDcgMjE1LjI0NiAxNDkuMjExIDIxNi4wOTNDMTQ4LjAyOCAyMTcuODYgMTQ2LjQyNyAyMTkuMzEgMTQ0LjU0OSAyMjAuMzE0QzE0Mi42NzEgMjIxLjMxOSAxNDAuNTc0IDIyMS44NDcgMTM4LjQ0MyAyMjEuODUyQzEzNi41MDkgMjIxLjg1NCAxMzQuNTk5IDIyMS40MjUgMTMyLjg1MyAyMjAuNTk3QzEzMS4xMDcgMjE5Ljc2OCAxMjkuNTY4IDIxOC41NjIgMTI4LjM1IDIxNy4wNjVDMTI3LjEyNCAyMTUuNTUgMTI2LjI1NCAyMTMuNzgxIDEyNS44MDEgMjExLjg4N0MxMjUuMzQ5IDIwOS45OTQgMTI1LjMyNyAyMDguMDI0IDEyNS43MzYgMjA2LjEyMUMxMjYuMjY1IDIwMy42NDMgMTI3LjUxNiAyMDEuMzc1IDEyOS4zMzEgMTk5LjYwMkMxMzEuMTQ2IDE5Ny44MjggMTMzLjQ0NSAxOTYuNjI3IDEzNS45NDEgMTk2LjE0OUMxMzguNDggMTk1LjY0NiAxNDEuMTExIDE5NS45MDggMTQzLjQ5OSAxOTYuOTAzQzE0NS44ODcgMTk3Ljg5OCAxNDcuOTI0IDE5OS41NzkgMTQ5LjM0OCAyMDEuNzMzQzE0OS45MTMgMjAyLjUyNiAxNTAuNjY0IDIwMy4xNjggMTUxLjUzNyAyMDMuNjAzQzE1Mi40MDkgMjA0LjAzOCAxNTMuMzc2IDIwNC4yNTIgMTU0LjM1MSAyMDQuMjI2SDE2MS42MTdDMTYyLjU5MyAyMDQuMjU3IDE2My41NjIgMjA0LjA0NiAxNjQuNDM1IDIwMy42MTFDMTY1LjMwOSAyMDMuMTc1IDE2Ni4wNiAyMDIuNTMgMTY2LjYyIDIwMS43MzNDMTY4LjAzIDE5OS41NTYgMTcwLjA2MiAxOTcuODQ4IDE3Mi40NTMgMTk2LjgzMUMxNzQuODQ0IDE5NS44MTQgMTc3LjQ4NyAxOTUuNTMzIDE4MC4wNCAxOTYuMDI0QzE4Mi41MzcgMTk2LjQ5OSAxODQuODM4IDE5Ny42OTkgMTg2LjY1NCAxOTkuNDc0QzE4OC40NjkgMjAxLjI0OCAxODkuNzE5IDIwMy41MTcgMTkwLjI0NSAyMDUuOTk2QzE5MC42NiAyMDcuODk5IDE5MC42NDEgMjA5Ljg3MSAxOTAuMTg5IDIxMS43NjVDMTg5LjczNiAyMTMuNjYgMTg4Ljg2MiAyMTUuNDI4IDE4Ny42MzEgMjE2Ljk0MUMxODYuNDE3IDIxOC40MzggMTg0Ljg4IDIxOS42NDYgMTgzLjEzNiAyMjAuNDc0QzE4MS4zOTIgMjIxLjMwMyAxNzkuNDgzIDIyMS43MzEgMTc3LjU1MSAyMjEuNzI3QzE3NS40MzkgMjIxLjcyOCAxNzMuMzU5IDIyMS4yMTUgMTcxLjQ5MiAyMjAuMjMzQzE2OS42MjQgMjE5LjI1MSAxNjguMDI1IDIxNy44MyAxNjYuODMzIDIxNi4wOTNDMTY2LjI5OCAyMTUuMjQ1IDE2NS41NjIgMjE0LjU0MSAxNjQuNjg5IDIxNC4wNDNDMTYzLjgxNyAyMTMuNTQ1IDE2Mi44MzUgMjEzLjI2OSAxNjEuODMgMjEzLjIzOEgxNTQuMjEzQzE1My4yMDkgMjEzLjI3MSAxNTIuMjI4IDIxMy41NDggMTUxLjM1NiAyMTQuMDQ2WiIvPiYjeGE7PHBhdGggZmlsbD0idXJsKCNwYWludDRfbGluZWFyXzE0NF81NzUwKSIgZD0iTTIwNC42MTUgMTM5LjA5N0MyMDQuNjE4IDE0Mi41MyAyMDUuOTg4IDE0NS44MjMgMjA4LjQyNCAxNDguMjUxQzIxMC44NiAxNTAuNjc5IDIxNC4xNjQgMTUyLjA0NSAyMTcuNjA5IDE1Mi4wNDhDMjIxLjA1NCAxNTIuMDQ1IDIyNC4zNTggMTUwLjY3OSAyMjYuNzk0IDE0OC4yNTFDMjI5LjIzIDE0NS44MjMgMjMwLjYgMTQyLjUzIDIzMC42MDMgMTM5LjA5N0MyMzAuNiAxMzUuNjYzIDIyOS4yMyAxMzIuMzcgMjI2Ljc5NCAxMjkuOTQyQzIyNC4zNTggMTI3LjUxNCAyMjEuMDU0IDEyNi4xNDggMjE3LjYwOSAxMjYuMTQ1QzIxNC4xNjQgMTI2LjE0OCAyMTAuODYgMTI3LjUxNCAyMDguNDI0IDEyOS45NDJDMjA1Ljk4OCAxMzIuMzcgMjA0LjYxOCAxMzUuNjYzIDIwNC42MTUgMTM5LjA5N1oiLz4mI3hhOzxwYXRoIGZpbGw9InVybCgjcGFpbnQ1X2xpbmVhcl8xNDRfNTc1MCkiIGQ9Ik04OS4xNDM0IDE0OC4yNTFDODYuNzA3MiAxNDUuODIzIDg1LjMzNyAxNDIuNTMgODUuMzMzNyAxMzkuMDk3Qzg1LjMzNyAxMzUuNjYzIDg2LjcwNzIgMTMyLjM3IDg5LjE0MzQgMTI5Ljk0MkM5MS41Nzk2IDEyNy41MTQgOTQuODgyOCAxMjYuMTQ4IDk4LjMyODEgMTI2LjE0NUMxMDEuNzczIDEyNi4xNDggMTA1LjA3NyAxMjcuNTE0IDEwNy41MTMgMTI5Ljk0MkMxMDkuOTQ5IDEzMi4zNyAxMTEuMzE5IDEzNS42NjMgMTExLjMyMyAxMzkuMDk3QzExMS4zMTkgMTQyLjUzIDEwOS45NDkgMTQ1LjgyMyAxMDcuNTEzIDE0OC4yNTFDMTA1LjA3NyAxNTAuNjc5IDEwMS43NzMgMTUyLjA0NSA5OC4zMjgxIDE1Mi4wNDhDOTQuODgyOCAxNTIuMDQ1IDkxLjU3OTYgMTUwLjY3OSA4OS4xNDM0IDE0OC4yNTFaIi8+JiN4YTs8cGF0aCBmaWxsPSJ3aGl0ZSIgZD0iTTE4NC4wMjggMTA0LjI3NUMxODQuMDMxIDEwNy43MDkgMTg1LjQwMSAxMTEuMDAxIDE4Ny44MzcgMTEzLjQyOUMxOTAuMjc0IDExNS44NTcgMTkzLjU3NyAxMTcuMjIzIDE5Ny4wMjIgMTE3LjIyNkMyMDAuNDY4IDExNy4yMjMgMjAzLjc3MSAxMTUuODU3IDIwNi4yMDcgMTEzLjQyOUMyMDguNjQzIDExMS4wMDEgMjEwLjAxMyAxMDcuNzA5IDIxMC4wMTcgMTA0LjI3NUMyMTAuMDEzIDEwMC44NDEgMjA4LjY0MyA5Ny41NDg0IDIwNi4yMDcgOTUuMTIwM0MyMDMuNzcxIDkyLjY5MjEgMjAwLjQ2OCA5MS4zMjY1IDE5Ny4wMjIgOTEuMzIzMkMxOTMuNTc3IDkxLjMyNjUgMTkwLjI3NCA5Mi42OTIxIDE4Ny44MzcgOTUuMTIwM0MxODUuNDAxIDk3LjU0ODQgMTg0LjAzMSAxMDAuODQxIDE4NC4wMjggMTA0LjI3NVoiLz4mI3hhOzxwYXRoIGZpbGw9IndoaXRlIiBkPSJNNjYuNzc4MSAxMDQuMjc1QzY2Ljc4MTQgMTA3LjcwOSA2OC4xNTE1IDExMS4wMDEgNzAuNTg3NyAxMTMuNDI5QzczLjAyMzkgMTE1Ljg1NyA3Ni4zMjcxIDExNy4yMjMgNzkuNzcyNCAxMTcuMjI2QzgzLjIxNzggMTE3LjIyMyA4Ni41MjEgMTE1Ljg1NyA4OC45NTcyIDExMy40MjlDOTEuMzkzNCAxMTEuMDAxIDkyLjc2MzUgMTA3LjcwOSA5Mi43NjY4IDEwNC4yNzVDOTIuNzYzNSAxMDAuODQxIDkxLjM5MzQgOTcuNTQ4NCA4OC45NTcyIDk1LjEyMDNDODYuNTIxIDkyLjY5MjEgODMuMjE3OCA5MS4zMjY1IDc5Ljc3MjQgOTEuMzIzMkM3Ni4zMjcxIDkxLjMyNjUgNzMuMDIzOSA5Mi42OTIxIDcwLjU4NzcgOTUuMTIwM0M2OC4xNTE1IDk3LjU0ODQgNjYuNzgxNCAxMDAuODQxIDY2Ljc3ODEgMTA0LjI3NVoiLz4mI3hhOzxwYXRoIGZpbGw9IndoaXRlIiBkPSJNMTg0LjAyOCAxNzMuOTE4QzE4NC4wMzEgMTc3LjM1MiAxODUuNDAxIDE4MC42NDQgMTg3LjgzNyAxODMuMDczQzE5MC4yNzQgMTg1LjUwMSAxOTMuNTc3IDE4Ni44NjYgMTk3LjAyMiAxODYuODdDMjAwLjQ2OCAxODYuODY2IDIwMy43NzEgMTg1LjUwMSAyMDYuMjA3IDE4My4wNzNDMjA4LjY0MyAxODAuNjQ0IDIxMC4wMTMgMTc3LjM1MiAyMTAuMDE3IDE3My45MThDMjEwLjAxMyAxNzAuNDg0IDIwOC42NDMgMTY3LjE5MiAyMDYuMjA3IDE2NC43NjRDMjAzLjc3MSAxNjIuMzM2IDIwMC40NjggMTYwLjk3IDE5Ny4wMjIgMTYwLjk2N0MxOTMuNTc3IDE2MC45NyAxOTAuMjc0IDE2Mi4zMzYgMTg3LjgzNyAxNjQuNzY0QzE4NS40MDEgMTY3LjE5MiAxODQuMDMxIDE3MC40ODQgMTg0LjAyOCAxNzMuOTE4WiIvPiYjeGE7PGRlZnM+JiN4YTs8bGluZWFyR3JhZGllbnQgZ3JhZGllbnRVbml0cz0idXNlclNwYWNlT25Vc2UiIHkyPSIyMzEuMTI2IiB4Mj0iMjAwLjg0OCIgeTE9IjQ5LjA5OTIiIHgxPSI2Ni43Mzc2IiBpZD0icGFpbnQwX2xpbmVhcl8xNDRfNTc1MCI+JiN4YTs8c3RvcCBzdG9wLWNvbG9yPSIjMDBGQUZGIi8+JiN4YTs8c3RvcCBzdG9wLWNvbG9yPSIjOEJGRjk1IiBvZmZzZXQ9IjEiLz4mI3hhOzwvbGluZWFyR3JhZGllbnQ+JiN4YTs8bGluZWFyR3JhZGllbnQgZ3JhZGllbnRVbml0cz0idXNlclNwYWNlT25Vc2UiIHkyPSIyMzEuMTI2IiB4Mj0iMjAwLjg0OCIgeTE9IjQ5LjA5OTIiIHgxPSI2Ni43Mzc2IiBpZD0icGFpbnQxX2xpbmVhcl8xNDRfNTc1MCI+JiN4YTs8c3RvcCBzdG9wLWNvbG9yPSIjMDBGQUZGIi8+JiN4YTs8c3RvcCBzdG9wLWNvbG9yPSIjOEJGRjk1IiBvZmZzZXQ9IjEiLz4mI3hhOzwvbGluZWFyR3JhZGllbnQ+JiN4YTs8bGluZWFyR3JhZGllbnQgZ3JhZGllbnRVbml0cz0idXNlclNwYWNlT25Vc2UiIHkyPSIyMzEuMTI2IiB4Mj0iMjAwLjg0OCIgeTE9IjQ5LjA5OTIiIHgxPSI2Ni43Mzc2IiBpZD0icGFpbnQyX2xpbmVhcl8xNDRfNTc1MCI+JiN4YTs8c3RvcCBzdG9wLWNvbG9yPSIjMDBGQUZGIi8+JiN4YTs8c3RvcCBzdG9wLWNvbG9yPSIjOEJGRjk1IiBvZmZzZXQ9IjEiLz4mI3hhOzwvbGluZWFyR3JhZGllbnQ+JiN4YTs8bGluZWFyR3JhZGllbnQgZ3JhZGllbnRVbml0cz0idXNlclNwYWNlT25Vc2UiIHkyPSIyMzEuMTI2IiB4Mj0iMjAwLjg0OCIgeTE9IjQ5LjA5OTIiIHgxPSI2Ni43Mzc2IiBpZD0icGFpbnQzX2xpbmVhcl8xNDRfNTc1MCI+JiN4YTs8c3RvcCBzdG9wLWNvbG9yPSIjMDBGQUZGIi8+JiN4YTs8c3RvcCBzdG9wLWNvbG9yPSIjOEJGRjk1IiBvZmZzZXQ9IjEiLz4mI3hhOzwvbGluZWFyR3JhZGllbnQ+JiN4YTs8bGluZWFyR3JhZGllbnQgZ3JhZGllbnRVbml0cz0idXNlclNwYWNlT25Vc2UiIHkyPSIyMzEuMTI2IiB4Mj0iMjAwLjg0OCIgeTE9IjQ5LjA5OTIiIHgxPSI2Ni43Mzc2IiBpZD0icGFpbnQ0X2xpbmVhcl8xNDRfNTc1MCI+JiN4YTs8c3RvcCBzdG9wLWNvbG9yPSIjMDBGQUZGIi8+JiN4YTs8c3RvcCBzdG9wLWNvbG9yPSIjOEJGRjk1IiBvZmZzZXQ9IjEiLz4mI3hhOzwvbGluZWFyR3JhZGllbnQ+JiN4YTs8bGluZWFyR3JhZGllbnQgZ3JhZGllbnRVbml0cz0idXNlclNwYWNlT25Vc2UiIHkyPSIyMzEuMTI2IiB4Mj0iMjAwLjg0OCIgeTE9IjQ5LjA5OTIiIHgxPSI2Ni43Mzc2IiBpZD0icGFpbnQ1X2xpbmVhcl8xNDRfNTc1MCI+JiN4YTs8c3RvcCBzdG9wLWNvbG9yPSIjMDBGQUZGIi8+JiN4YTs8c3RvcCBzdG9wLWNvbG9yPSIjOEJGRjk1IiBvZmZzZXQ9IjEiLz4mI3hhOzwvbGluZWFyR3JhZGllbnQ+JiN4YTs8L2RlZnM+JiN4YTs8L3N2Zz4=;clipPath=inset(0% 75% 0% 0%);" parent="sjKJRGS4V3Ahwg_5ihNp-98" vertex="1">
          <mxGeometry x="160" y="65" width="31.25" height="30" as="geometry" />
        </mxCell>
        <mxCell id="sjKJRGS4V3Ahwg_5ihNp-102" value="EventStore&lt;br&gt;&lt;span style=&quot;font-weight: 400;&quot;&gt;optional&lt;/span&gt;" style="swimlane;whiteSpace=wrap;html=1;startSize=40;" parent="1" vertex="1">
          <mxGeometry x="1990" y="360" width="220" height="230" as="geometry" />
        </mxCell>
        <mxCell id="sjKJRGS4V3Ahwg_5ihNp-103" value="&amp;nbsp; Nats" style="rounded=0;whiteSpace=wrap;html=1;verticalAlign=middle;align=left;" parent="sjKJRGS4V3Ahwg_5ihNp-102" vertex="1">
          <mxGeometry x="10" y="60" width="200" height="40" as="geometry" />
        </mxCell>
        <mxCell id="sjKJRGS4V3Ahwg_5ihNp-104" value="&amp;nbsp; Self-Implement: &lt;br&gt;&amp;nbsp; Rust Trait &lt;i&gt;CloudEventBackend&lt;/i&gt;" style="rounded=0;whiteSpace=wrap;html=1;verticalAlign=middle;align=left;" parent="sjKJRGS4V3Ahwg_5ihNp-102" vertex="1">
          <mxGeometry x="10" y="160" width="200" height="40" as="geometry" />
        </mxCell>
        <mxCell id="sjKJRGS4V3Ahwg_5ihNp-106" value="&amp;nbsp;Apache Kafka" style="rounded=0;whiteSpace=wrap;html=1;verticalAlign=middle;align=left;" parent="sjKJRGS4V3Ahwg_5ihNp-102" vertex="1">
          <mxGeometry x="10" y="110" width="200" height="40" as="geometry" />
        </mxCell>
        <mxCell id="sjKJRGS4V3Ahwg_5ihNp-107" value="" style="shape=image;verticalLabelPosition=bottom;labelBackgroundColor=default;verticalAlign=top;aspect=fixed;imageAspect=0;image=data:image/svg+xml,PHN2ZyB4bWxucz0iaHR0cDovL3d3dy53My5vcmcvMjAwMC9zdmciIGlkPSJzdmcyIiBwcmVzZXJ2ZUFzcGVjdFJhdGlvPSJ4TWlkWU1pZCIgdmVyc2lvbj0iMS4xIiB2aWV3Qm94PSI2LjAwMDAwMDk1MzY3NDMxNiAwLjAwMDAwMTk4OTI1MzQwNTU1NDMzNjUgMTkuNzA5MDAzNDQ4NDg2MzI4IDMxLjk5OTk5ODA5MjY1MTM2NyIgaGVpZ2h0PSI2My45OTk5OTYxODUzMDI3MzQiIHdpZHRoPSIzOS40MTgwMDY4OTY5NzI2NTYiPiYjeGE7ICA8bWV0YWRhdGEgaWQ9Im1ldGFkYXRhMTIiPiYjeGE7ICAgICYjeGE7ICAgICAgJiN4YTsgICAgICAgIGltYWdlL3N2Zyt4bWwmI3hhOyAgICAgICAgJiN4YTsgICAgICAmI3hhOyAgICAmI3hhOyAgPC9tZXRhZGF0YT4mI3hhOyAgPGRlZnMgaWQ9ImRlZnMxMCIvPiYjeGE7ICAmI3hhOyAgPGcgdHJhbnNmb3JtPSJtYXRyaXgoMC4wNjcwMzE3OCwwLDAsMC4wNjcwMzIwNCw1LjYwOTU4NjYsMS4wMTUwODEpIiBpZD0iZzQiPiYjeGE7ICAgIDxwYXRoIHN0eWxlPSJmaWxsOiMwMDAwMDAiIGlkPSJwYXRoNiIgZD0ibSAyMzcuNjE2ODYsMjQ5LjI2Nzc0IGMgLTE4LjU5MDE3LDAgLTM1LjI1NjU1LDguMjM2MTQgLTQ2LjY2OTUzLDIxLjIwMzA5IEwgMTYxLjcwMjIsMjQ5Ljc2NzM2IGMgMy4xMDQ0OSwtOC41NDczOSA0Ljg4NzAyLC0xNy43MjUzMyA0Ljg4NzAyLC0yNy4zMzE2NyAwLC05LjQzOTggLTEuNzIwNTEsLTE4LjQ2MzgzIC00LjcyMjc4LC0yNi44ODQ4OSBsIDI5LjE3OTY2LC0yMC40ODQxIGMgMTEuNDExODQsMTIuOTAxNDggMjguMDM0NTcsMjEuMDkyODMgNDYuNTcwNzYsMjEuMDkyODMgMzQuMzEyNDYsMCA2Mi4yMzIxOCwtMjcuOTE1MTMgNjIuMjMyMTgsLTYyLjIzMjE4IDAsLTM0LjMxNzA0OSAtMjcuOTE5NzIsLTYyLjIzMjE3MSAtNjIuMjMyMTgsLTYyLjIzMjE3MSAtMzQuMzEyNDUsMCAtNjIuMjMyMTcsMjcuOTE1MTIyIC02Mi4yMzIxNyw2Mi4yMzIxNzEgMCw2LjE0MjM2IDAuOTI4MDIsMTIuMDY1MzUgMi41OTMzOSwxNy42NzQ3OSBMIDE0OC43Nzg5LDE3Mi4wOTY1OSBDIDEzNi41ODE0NywxNTYuOTY0NjUgMTE5LjAxOTIzLDE0Ni4zOTkyOCA5OS4wMDk0NzMsMTQzLjE3NDIgbCAwLC0zNS4xOTEwOCBjIDI4LjE4OTYxNywtNS45MjA3IDQ5LjQyOTQ1NywtMzAuOTY2NzgyIDQ5LjQyOTQ1NywtNjAuODk0MTM2IDAsLTM0LjMxNzA1MiAtMjcuOTE5NzEsLTYyLjIzMjE3NCAtNjIuMjMyMTY3LC02Mi4yMzIxNzQgLTM0LjMxMjQ1OCwwIC02Mi4yMzIxNzQsMjcuOTE1MTIyIC02Mi4yMzIxNzQsNjIuMjMyMTc0IDAsMjkuNTI2NTE1IDIwLjY4OTY5NCw1NC4yNjM2NDYgNDguMzE1Mzg2LDYwLjYwNjk5NiBsIDAsMzUuNjQ4MiBjIC0zNy43MDE3ODIsNi42MTc4NiAtNjYuNDY1NjcxMiwzOS41MjEwNiAtNjYuNDY1NjcxMiw3OS4wOTE1MSAwLDM5Ljc2MzQgMjkuMDQ4NzI1Miw3Mi43ODcyIDY3LjAyMjcxMDIsNzkuMTc5OTQgbCAwLDM3LjY0MjA2IGMgLTI3LjkwODIzMSw2LjEzNDMyIC00OC44NzI0MjUsMzEuMDIzMDYgLTQ4Ljg3MjQyNSw2MC43NTA1NyAwLDM0LjMxNzA1IDI3LjkxOTcxNiw2Mi4yMzIxNyA2Mi4yMzIxNzQsNjIuMjMyMTcgMzQuMzEyNDU3LDAgNjIuMjMyMTY3LC0yNy45MTUxMiA2Mi4yMzIxNjcsLTYyLjIzMjE3IDAsLTI5LjcyNzUxIC0yMC45NjQxOSwtNTQuNjE2MjUgLTQ4Ljg3MjQxOCwtNjAuNzUwNTcgbCAwLC0zNy42NDMyIEMgMTE5LjE4MjMyLDI5OC4zMTEzIDEzNi40MjE4MiwyODcuOTU0OTcgMTQ4LjQ5NDA2LDI3My4xNTg0IGwgMjkuNDQwMzgsMjAuODM3ODYgYyAtMS42MzQzNyw1LjU1ODkgLTIuNTQ5NzUsMTEuNDIzMzIgLTIuNTQ5NzUsMTcuNTAzNjYgMCwzNC4zMTcwNSAyNy45MTk3Miw2Mi4yMzIxNyA2Mi4yMzIxNyw2Mi4yMzIxNyAzNC4zMTI0NiwwIDYyLjIzMjE4LC0yNy45MTUxMiA2Mi4yMzIxOCwtNjIuMjMyMTcgMCwtMzQuMzE3MDUgLTI3LjkxOTcyLC02Mi4yMzIxOCAtNjIuMjMyMTgsLTYyLjIzMjE4IGwgMCwwIHogbSAwLC0xNDUuNTEzNTMgYyAxNi42Mzg4MiwwIDMwLjE3MiwxMy41Mzg5MiAzMC4xNzIsMzAuMTczMTQgMCwxNi42MzQyMiAtMTMuNTMzMTgsMzAuMTcxOTkgLTMwLjE3MiwzMC4xNzE5OSAtMTYuNjM4ODEsMCAtMzAuMTcxOTksLTEzLjUzNzc3IC0zMC4xNzE5OSwtMzAuMTcxOTkgMCwtMTYuNjM0MjIgMTMuNTMzMTgsLTMwLjE3MzE0IDMwLjE3MTk5LC0zMC4xNzMxNCBsIDAsMCB6IE0gNTYuMDMzNjIyLDQ3LjA4ODk4NCBjIDAsLTE2LjYzNDIyIDEzLjUzNDMyNywtMzAuMTcxOTkyIDMwLjE3MzE0MSwtMzAuMTcxOTkyIDE2LjYzODgxNywwIDMwLjE3MTk4NywxMy41Mzc3NzIgMzAuMTcxOTg3LDMwLjE3MTk5MiAwLDE2LjYzNDIyIC0xMy41MzMxNywzMC4xNzE5OTEgLTMwLjE3MTk4NywzMC4xNzE5OTEgLTE2LjYzODgxNCwwIC0zMC4xNzMxNDEsLTEzLjUzNzc3MSAtMzAuMTczMTQxLC0zMC4xNzE5OTEgbCAwLDAgeiBNIDExNi4zNzg3NSw0MDAuMDA4MjYgYyAwLDE2LjYzNDIyIC0xMy41MzMxNywzMC4xNzE5OSAtMzAuMTcxOTg3LDMwLjE3MTk5IC0xNi42Mzg4MTQsMCAtMzAuMTczMTQxLC0xMy41Mzc3NyAtMzAuMTczMTQxLC0zMC4xNzE5OSAwLC0xNi42MzQyMiAxMy41MzQzMjcsLTMwLjE3MiAzMC4xNzMxNDEsLTMwLjE3MiAxNi42Mzg4MTcsMCAzMC4xNzE5ODcsMTMuNTM3NzggMzAuMTcxOTg3LDMwLjE3MiBsIDAsMCB6IE0gODYuMjA0NDY2LDI2NC41MTU2OCBjIC0yMy4yMDYxMzMsMCAtNDIuMDg0NTg4LC0xOC44NzUwMSAtNDIuMDg0NTg4LC00Mi4wNzk5OSAwLC0yMy4yMDYxMyAxOC44Nzg0NTUsLTQyLjA4NDU5IDQyLjA4NDU4OCwtNDIuMDg0NTkgMjMuMjA0OTg0LDAgNDIuMDgzNDM0LDE4Ljg3ODQ2IDQyLjA4MzQzNCw0Mi4wODQ1OSAwLDIzLjIwNDk4IC0xOC44Nzg0NSw0Mi4wNzk5OSAtNDIuMDgzNDM0LDQyLjA3OTk5IGwgMCwwIHogbSAxNTEuNDEyMzk0LDc3LjE1NzM4IGMgLTE2LjYzODgxLDAgLTMwLjE3MTk5LC0xMy41Mzg5MiAtMzAuMTcxOTksLTMwLjE3MzE0IDAsLTE2LjYzNDIyIDEzLjUzMzE4LC0zMC4xNzE5OSAzMC4xNzE5OSwtMzAuMTcxOTkgMTYuNjM4ODIsMCAzMC4xNzIsMTMuNTM3NzcgMzAuMTcyLDMwLjE3MTk5IDAsMTYuNjM0MjIgLTEzLjUzMzE4LDMwLjE3MzE0IC0zMC4xNzIsMzAuMTczMTQgbCAwLDAgeiIvPiYjeGE7ICA8L2c+JiN4YTs8L3N2Zz4=;" parent="sjKJRGS4V3Ahwg_5ihNp-102" vertex="1">
          <mxGeometry x="166.48000000000002" y="115" width="18.28" height="30" as="geometry" />
        </mxCell>
        <mxCell id="sjKJRGS4V3Ahwg_5ihNp-108" value="Data Contract System&lt;br&gt;&lt;span style=&quot;font-weight: 400;&quot;&gt;optional&lt;/span&gt;" style="swimlane;whiteSpace=wrap;html=1;startSize=40;" parent="1" vertex="1">
          <mxGeometry x="1990" y="640" width="220" height="170" as="geometry" />
        </mxCell>
        <mxCell id="sjKJRGS4V3Ahwg_5ihNp-109" value="&amp;nbsp;Covenant: Coming Soon" style="rounded=0;whiteSpace=wrap;html=1;verticalAlign=middle;align=left;" parent="sjKJRGS4V3Ahwg_5ihNp-108" vertex="1">
          <mxGeometry x="10" y="60" width="200" height="40" as="geometry" />
        </mxCell>
        <mxCell id="sjKJRGS4V3Ahwg_5ihNp-110" value="&amp;nbsp; Self-Implement: &lt;br&gt;&amp;nbsp; Rust Trait &lt;i&gt;ContractValidator&lt;/i&gt;" style="rounded=0;whiteSpace=wrap;html=1;verticalAlign=middle;align=left;" parent="sjKJRGS4V3Ahwg_5ihNp-108" vertex="1">
          <mxGeometry x="10" y="110" width="200" height="40" as="geometry" />
        </mxCell>
      </root>
    </mxGraphModel>
  </diagram>
</mxfile>
